<svg width="139" height="139" fill="none" xmlns="http://www.w3.org/2000/svg"><path d="M67.505 75.196c0 17.804-14.431 32.236-32.236 32.236S3.033 93 3.033 75.196c0-17.805 14.431-32.236 32.236-32.236s32.236 14.43 32.236 32.235z" fill="url(#paint0_radial_2_3206)"/><path d="M45.72 63.347l-13.123 5.256L46.971 104.5l4.72-7.226 8.404 1.97L45.72 63.346z" fill="url(#paint1_linear_2_3206)"/><path d="M45.635 63.553l14.206 35.47-8.112-1.902-.105-.024-.063.09-4.556 6.972-14.202-35.465 12.832-5.141zm.086-.206l-13.124 5.256 14.374 35.892 4.72-7.226 8.404 1.97L45.72 63.347z" fill="url(#paint2_linear_2_3206)"/><path d="M31.99 64.506l13.124 5.256-14.374 35.892-4.72-7.225-8.404 1.969 14.375-35.892z" fill="url(#paint3_linear_2_3206)"/><path d="M32.077 64.707l12.831 5.142-14.206 35.47-4.557-6.972-.057-.09-.106.023-8.112 1.903 14.207-35.476zm-.086-.2l-14.375 35.891 8.404-1.97 4.72 7.226 14.374-35.892-13.123-5.256z" fill="url(#paint4_linear_2_3206)"/><path d="M61.275 74.808c-.01 1.571-1.255 3.205-2.764 3.636-1.51.431-3.196 1.984-3.738 3.46-.546 1.47-2.276 2.582-3.843 2.472-1.566-.115-3.68.776-4.695 1.97-1.016 1.197-3.023 1.652-4.456 1.01-1.433-.642-3.723-.532-5.088.245-1.366.776-3.402.517-4.533-.575-1.126-1.093-3.316-1.773-4.863-1.51-1.548.264-3.373-.675-4.063-2.089-.685-1.413-2.51-2.798-4.054-3.08-1.543-.283-2.942-1.792-3.1-3.354-.158-1.563-1.399-3.489-2.755-4.284-1.356-.795-2.151-2.688-1.768-4.212.383-1.523-.124-3.756-1.126-4.968-1.001-1.208-1.102-3.263-.22-4.562.881-1.298 1.169-3.574.642-5.05-.527-1.48.081-3.44 1.351-4.36 1.274-.92 2.32-2.956 2.329-4.528.01-1.571 1.25-3.205 2.764-3.636 1.51-.431 3.196-1.984 3.737-3.46.547-1.47 2.276-2.582 3.843-2.472 1.567.115 3.68-.776 4.696-1.97 1.015-1.197 3.023-1.652 4.456-1.01 1.432.642 3.722.532 5.088-.245 1.366-.776 3.402-.517 4.533.575 1.126 1.093 3.315 1.773 4.863 1.51 1.547-.264 3.373.675 4.063 2.089.685 1.413 2.51 2.798 4.053 3.08 1.543.283 2.942 1.792 3.1 3.354.163 1.563 1.4 3.489 2.756 4.284 1.355.795 2.15 2.688 1.768 4.212-.384 1.523.124 3.756 1.125 4.968 1.002 1.208 1.102 3.263.22 4.562-.88 1.298-1.168 3.574-.641 5.05.527 1.48-.082 3.44-1.351 4.36-1.27.92-2.32 2.956-2.329 4.528z" fill="url(#paint5_linear_2_3206)"/><path d="M11.768 59.911c0-14.436 11.7-26.136 26.137-26.136 14.436 0 26.137 11.7 26.137 26.136 0 14.437-11.7 26.137-26.137 26.137-14.431 0-26.137-11.7-26.137-26.137z" fill="url(#paint6_linear_2_3206)"/><path d="M63.258 59.911c0 14.005-11.35 25.356-25.356 25.356-14.005 0-25.356-11.35-25.356-25.356 0-14.005 11.35-25.355 25.356-25.355 14.005.004 25.356 11.355 25.356 25.355z" fill="url(#paint7_radial_2_3206)"/><path d="M14.137 59.911c0-13.123 10.642-23.765 23.765-23.765 13.124 0 23.765 10.642 23.765 23.765 0 13.124-10.641 23.765-23.765 23.765-13.123.005-23.765-10.636-23.765-23.765z" fill="url(#paint8_linear_2_3206)"/><path d="M37.904 82.963c12.73 0 23.05-10.32 23.05-23.052 0-12.73-10.32-23.05-23.05-23.05-12.731 0-23.052 10.32-23.052 23.05 0 12.731 10.32 23.052 23.052 23.052z" fill="url(#paint9_radial_2_3206)"/><path opacity=".2" d="M21.878 79.556L37.904 59.91l-16.55 19.2c.173.153.345.301.523.445zm-2.176-2.003L37.91 59.916 19.233 77.06c.148.162.306.325.47.493zm12.697 7.11l5.51-24.747-6.176 24.594c.216.053.441.1.666.153zm-5.567-1.935L37.905 59.91l-11.682 22.5c.201.11.403.216.609.317zm8.466 2.41l2.607-25.222-3.287 25.136c.23.028.455.062.68.086zm-5.74-1.284l8.347-23.943L28.91 83.62c.216.086.431.163.647.235zM13 64.654l24.906-4.743-25.026 4.068c.039.23.077.455.12.676zm-.378-2.927l25.284-1.816-25.328 1.131.044.685zm1.087 5.783l24.197-7.599-24.388 6.938c.067.22.124.446.191.661zm4.068 7.815l20.129-15.409-20.54 14.863c.138.177.272.364.411.546zm-1.658-2.444l21.787-12.97-22.127 12.376c.11.202.225.403.34.594zm-1.356-2.616L37.91 59.916l-23.42 9.722c.086.21.177.417.273.627zm23.143 15.002c.115 0 .23-.005.345-.01l-.345-25.346-.34 25.346c.114.005.225.01.34.01zm18.681-8.212L37.91 59.91l18.208 17.637c.153-.163.316-.326.47-.493zm1.86-2.28L37.904 59.91l20.128 15.41c.144-.178.278-.365.412-.547zm2.879-5.137l-23.42-9.722 23.147 10.35c.09-.211.187-.418.273-.628zm-1.29 2.654L37.91 59.916l21.787 12.97c.115-.201.225-.397.34-.594zm2.9-8.308L37.91 59.916l24.906 4.743c.038-.225.081-.45.12-.675zm-.642 2.865l-24.388-6.938 24.196 7.6c.072-.216.13-.441.192-.662zM12.578 58.78l25.327 1.131-25.284-1.816c-.015.23-.03.456-.043.686zm34.32 24.844l-8.989-23.708 8.347 23.943c.21-.077.426-.154.642-.235zm7.56-4.514L37.906 59.911l16.032 19.645c.177-.144.35-.292.522-.446zm-13.267 5.942l-3.286-25.136 2.606 25.222c.23-.024.455-.058.68-.087zm2.89-.547l-6.176-24.594 5.51 24.748c.225-.048.445-.096.666-.154zm8.04-3.593L37.904 59.916l13.64 21.37c.197-.125.389-.25.575-.374zm-2.53 1.504l-11.686-22.5 11.072 22.817c.206-.106.413-.211.614-.317zm-25.327-1.135l13.64-21.37L23.69 80.907c.191.13.383.254.575.374zm29.673-41.01L37.909 59.916l16.55-19.199a15.286 15.286 0 00-.523-.445zm-2.391-1.724l-13.641 21.37L52.12 38.92c-.186-.134-.383-.254-.574-.373zm4.566 3.727L37.905 59.911 56.58 42.768c-.153-.168-.311-.33-.47-.494zm-9.86-6.305L37.904 59.91l8.988-23.707c-.21-.082-.426-.158-.642-.235zm11.781 8.533l-20.128 15.41L58.44 45.047c-.129-.182-.268-.364-.407-.546zM48.977 37.1L37.905 59.91l11.68-22.5c-.2-.105-.402-.21-.608-.311zm12.075 12.462L37.909 59.916l23.42-9.726c-.09-.211-.186-.422-.277-.628zm2.137 8.538l-25.284 1.816 25.327-1.13a16.39 16.39 0 00-.043-.686zm-.379-2.932L37.905 59.91l25.025-4.068c-.034-.225-.077-.45-.12-.675zm.422 5.874l-25.327-1.13 25.284 1.815c.019-.23.033-.455.043-.685zm-1.131-8.73l-24.196 7.6 24.388-6.939c-.063-.22-.12-.44-.192-.66zM43.415 35.164l-5.51 24.747 6.176-24.594c-.22-.052-.441-.1-.666-.153zM59.69 46.941l-21.786 12.97L60.03 47.535c-.11-.196-.22-.397-.34-.594zm-35.998-8.025L37.91 59.91 24.27 38.54c-.192.125-.389.245-.576.375zm-6.324 6.137l20.536 14.863-20.129-15.414a23.31 23.31 0 00-.407.551zm1.859-2.28l18.677 17.143L19.698 42.28a11.48 11.48 0 00-.47.494zm-3.45 4.762l22.127 12.376-21.787-12.97c-.115.197-.225.393-.34.594zm5.577-6.823l16.55 19.2-16.027-19.645c-.178.148-.35.297-.523.445zM40.51 34.69l-2.605 25.22 3.286-25.135c-.225-.029-.45-.062-.68-.086zm-26.027 15.5l23.42 9.726-23.142-10.354c-.096.206-.187.417-.277.628zm-.963 2.783l24.388 6.938-24.196-7.599c-.072.22-.13.441-.192.661zm-.642 2.87l25.026 4.068-24.906-4.743c-.043.225-.081.45-.12.675zM37.905 34.56c-.115 0-.226.005-.34.01l.34 25.346.345-25.346a8.276 8.276 0 00-.345-.01zm-6.177.757l6.177 24.594-5.506-24.747c-.225.053-.45.1-.67.153zm2.89-.541l3.287 25.135-2.607-25.221c-.225.024-.45.057-.68.086zm-5.702 1.428l8.993 23.707-8.35-23.942c-.216.077-.432.153-.643.235zm-2.693 1.207l11.682 22.5L26.832 37.1c-.206.1-.408.206-.609.311z" fill="url(#paint10_radial_2_3206)"/><path d="M36.263 73.183V53.414h-3.296v-2.702c.93-.11 1.81-.46 2.654-1.054.843-.594 1.442-1.313 1.811-2.161h2.703v25.686h-3.872z" fill="url(#paint11_linear_2_3206)"/><path d="M52.57 62.906l-1.729-1.026-1.734 1.026.44-1.965-1.514-1.327 2.008-.191.795-1.85.8 1.85 2.008.186-1.514 1.332.44 1.965z" fill="url(#paint12_linear_2_3206)"/><path d="M25.708 62.906l-1.734-1.026-1.73 1.026.44-1.965-1.513-1.327 2.007-.191.796-1.85.8 1.85 2.002.186-1.509 1.332.441 1.965z" fill="url(#paint13_linear_2_3206)"/><path d="M35.482 39.946l1.045 3.517v-3.517h.79v5.232h-.848l-1.083-3.35v3.35h-.79v-5.232h.886z" fill="url(#paint14_linear_2_3206)"/><path d="M39.258 39.883c.35 0 .642.125.887.37.244.244.364.54.364.886v2.855c0 .35-.124.642-.369.887a1.208 1.208 0 01-.886.364c-.35 0-.642-.125-.887-.369a1.227 1.227 0 01-.364-.886v-2.856c0-.35.125-.642.37-.886.248-.245.545-.364.886-.364zm.432 1.232a.441.441 0 00-.45-.45.449.449 0 00-.322.129.42.42 0 00-.134.32v2.861a.449.449 0 00.455.45c.125 0 .23-.042.321-.129a.433.433 0 00.13-.32v-2.861z" fill="url(#paint15_linear_2_3206)"/><path d="M41.056 44.392h.79v.79h-.79v-.79z" fill="url(#paint16_linear_2_3206)"/><path d="M29.224 78.324h-1.107v-.426h1.107v.426z" fill="url(#paint17_linear_2_3206)"/><path d="M31.16 75.291h.685c.373 0 .647.092.824.274.177.182.263.47.263.857 0 .551-.21.896-.627 1.045.455.09.685.455.685 1.083 0 .345-.082.608-.25.795-.167.187-.402.283-.709.283h-.871V75.29zm.574.446v1.505c.22-.005.384-.063.484-.173.101-.11.154-.297.154-.57 0-.292-.043-.494-.13-.604-.086-.105-.258-.158-.508-.158zm0 1.94v1.51c.23-.005.398-.053.494-.153.1-.096.148-.288.148-.566 0-.297-.047-.508-.148-.618-.1-.115-.264-.172-.494-.172z" fill="url(#paint18_linear_2_3206)"/><path d="M35.61 79.623h-.608l-.68-2.032h-.053v2.032h-.584V75.29h.81c.66 0 .991.37.991 1.107 0 .336-.048.59-.148.757a.9.9 0 01-.475.384l.748 2.084zm-1.336-2.43c.225-.004.393-.057.493-.162.101-.106.154-.293.154-.56 0-.26-.048-.446-.14-.557-.09-.11-.248-.167-.469-.167h-.033v1.447h-.005z" fill="url(#paint19_linear_2_3206)"/><path d="M38.462 79.623h-.566l-.158-.858h-.915l-.163.858h-.551l.934-4.332h.48l.939 4.332zm-.8-1.294l-.38-2.055h-.013l-.36 2.055h.752z" fill="url(#paint20_linear_2_3206)"/><path d="M41.196 79.623h-.46l-1.107-2.976h-.014v2.971h-.522v-4.331h.464l1.107 2.975.015.005v-2.975h.512v4.33h.005z" fill="url(#paint21_linear_2_3206)"/><path d="M42.073 75.291h.843c.398 0 .714.15.944.45.23.303.345.868.345 1.697 0 .8-.1 1.366-.302 1.691-.201.331-.565.494-1.088.494h-.742V75.29zm.584.446v3.45c.245 0 .432-.043.556-.134.13-.091.22-.259.283-.508.062-.25.096-.618.096-1.112 0-.632-.058-1.068-.178-1.317-.115-.25-.345-.374-.68-.374h-.077v-.005z" fill="url(#paint22_linear_2_3206)"/><path d="M47.157 78.324H46.05v-.426h1.107v.426z" fill="url(#paint23_linear_2_3206)"/><defs><linearGradient id="paint1_linear_2_3206" x1="52.374" y1="99.159" x2="41.905" y2="72.69" gradientUnits="userSpaceOnUse"><stop stop-color="#EEBE47"/><stop offset=".12" stop-color="#F8DB77"/><stop offset=".21" stop-color="#FFEE96"/><stop offset=".446" stop-color="#A2621E"/><stop offset=".667" stop-color="#EEA54C"/><stop offset="1" stop-color="#EEBE47"/></linearGradient><linearGradient id="paint2_linear_2_3206" x1="32.598" y1="83.923" x2="60.097" y2="83.923" gradientUnits="userSpaceOnUse"><stop stop-color="#EEBE47"/><stop offset=".12" stop-color="#F8DB77"/><stop offset=".21" stop-color="#FFEE96"/><stop offset=".446" stop-color="#A2621E"/><stop offset=".667" stop-color="#EEA54C"/><stop offset="1" stop-color="#EEBE47"/></linearGradient><linearGradient id="paint3_linear_2_3206" x1="25.339" y1="100.317" x2="36.504" y2="72.087" gradientUnits="userSpaceOnUse"><stop stop-color="#EEBE47"/><stop offset=".12" stop-color="#F8DB77"/><stop offset=".21" stop-color="#FFEE96"/><stop offset=".446" stop-color="#A2621E"/><stop offset=".667" stop-color="#EEA54C"/><stop offset="1" stop-color="#EEBE47"/></linearGradient><linearGradient id="paint4_linear_2_3206" x1="17.616" y1="85.081" x2="45.114" y2="85.081" gradientUnits="userSpaceOnUse"><stop stop-color="#EEBE47"/><stop offset=".12" stop-color="#F8DB77"/><stop offset=".21" stop-color="#FFEE96"/><stop offset=".446" stop-color="#A2621E"/><stop offset=".667" stop-color="#EEA54C"/><stop offset="1" stop-color="#EEBE47"/></linearGradient><linearGradient id="paint5_linear_2_3206" x1="15.554" y1="38.743" x2="57.072" y2="78.068" gradientUnits="userSpaceOnUse"><stop stop-color="#EEBE47"/><stop offset=".12" stop-color="#F8DB77"/><stop offset=".21" stop-color="#FFEE96"/><stop offset=".446" stop-color="#A2621E"/><stop offset=".667" stop-color="#EEA54C"/><stop offset="1" stop-color="#EEBE47"/></linearGradient><linearGradient id="paint6_linear_2_3206" x1="18.581" y1="81.451" x2="56.835" y2="38.819" gradientUnits="userSpaceOnUse"><stop stop-color="#EEBE47"/><stop offset=".12" stop-color="#F8DB77"/><stop offset=".21" stop-color="#FFEE96"/><stop offset=".446" stop-color="#A2621E"/><stop offset=".667" stop-color="#EEA54C"/><stop offset="1" stop-color="#EEBE47"/></linearGradient><linearGradient id="paint8_linear_2_3206" x1="8.167" y1="33.052" x2="69.528" y2="88.479" gradientUnits="userSpaceOnUse"><stop stop-color="#EEBE47"/><stop offset=".12" stop-color="#F8DB77"/><stop offset=".21" stop-color="#FFEE96"/><stop offset=".446" stop-color="#A2621E"/><stop offset=".667" stop-color="#EEA54C"/><stop offset="1" stop-color="#EEBE47"/></linearGradient><linearGradient id="paint11_linear_2_3206" x1="30.146" y1="48.352" x2="53.55" y2="83.177" gradientUnits="userSpaceOnUse"><stop stop-color="#EEBE47"/><stop offset=".12" stop-color="#F8DB77"/><stop offset=".21" stop-color="#FFEE96"/><stop offset=".446" stop-color="#A2621E"/><stop offset=".667" stop-color="#EEA54C"/><stop offset="1" stop-color="#EEBE47"/></linearGradient><linearGradient id="paint12_linear_2_3206" x1="19.005" y1="42.27" x2="88.777" y2="82.758" gradientUnits="userSpaceOnUse"><stop stop-color="#EEBE47"/><stop offset=".12" stop-color="#F8DB77"/><stop offset=".21" stop-color="#FFEE96"/><stop offset=".446" stop-color="#A2621E"/><stop offset=".667" stop-color="#EEA54C"/><stop offset="1" stop-color="#EEBE47"/></linearGradient><linearGradient id="paint13_linear_2_3206" x1="4.163" y1="49.247" x2="73.905" y2="89.718" gradientUnits="userSpaceOnUse"><stop stop-color="#EEBE47"/><stop offset=".12" stop-color="#F8DB77"/><stop offset=".21" stop-color="#FFEE96"/><stop offset=".446" stop-color="#A2621E"/><stop offset=".667" stop-color="#EEA54C"/><stop offset="1" stop-color="#EEBE47"/></linearGradient><linearGradient id="paint14_linear_2_3206" x1="33.527" y1="38.944" x2="63.351" y2="83.322" gradientUnits="userSpaceOnUse"><stop stop-color="#EEBE47"/><stop offset=".12" stop-color="#F8DB77"/><stop offset=".21" stop-color="#FFEE96"/><stop offset=".446" stop-color="#A2621E"/><stop offset=".667" stop-color="#EEA54C"/><stop offset="1" stop-color="#EEBE47"/></linearGradient><linearGradient id="paint15_linear_2_3206" x1="35.802" y1="37.415" x2="65.63" y2="81.799" gradientUnits="userSpaceOnUse"><stop stop-color="#EEBE47"/><stop offset=".12" stop-color="#F8DB77"/><stop offset=".21" stop-color="#FFEE96"/><stop offset=".446" stop-color="#A2621E"/><stop offset=".667" stop-color="#EEA54C"/><stop offset="1" stop-color="#EEBE47"/></linearGradient><linearGradient id="paint16_linear_2_3206" x1="36.281" y1="37.099" x2="66.094" y2="81.46" gradientUnits="userSpaceOnUse"><stop stop-color="#EEBE47"/><stop offset=".12" stop-color="#F8DB77"/><stop offset=".21" stop-color="#FFEE96"/><stop offset=".446" stop-color="#A2621E"/><stop offset=".667" stop-color="#EEA54C"/><stop offset="1" stop-color="#EEBE47"/></linearGradient><linearGradient id="paint17_linear_2_3206" x1="14.543" y1="59.536" x2="38.993" y2="91.686" gradientUnits="userSpaceOnUse"><stop stop-color="#EEBE47"/><stop offset=".12" stop-color="#F8DB77"/><stop offset=".21" stop-color="#FFEE96"/><stop offset=".446" stop-color="#A2621E"/><stop offset=".667" stop-color="#EEA54C"/><stop offset="1" stop-color="#EEBE47"/></linearGradient><linearGradient id="paint18_linear_2_3206" x1="16.844" y1="57.778" x2="41.301" y2="89.938" gradientUnits="userSpaceOnUse"><stop stop-color="#EEBE47"/><stop offset=".12" stop-color="#F8DB77"/><stop offset=".21" stop-color="#FFEE96"/><stop offset=".446" stop-color="#A2621E"/><stop offset=".667" stop-color="#EEA54C"/><stop offset="1" stop-color="#EEBE47"/></linearGradient><linearGradient id="paint19_linear_2_3206" x1="18.459" y1="56.549" x2="42.917" y2="88.71" gradientUnits="userSpaceOnUse"><stop stop-color="#EEBE47"/><stop offset=".12" stop-color="#F8DB77"/><stop offset=".21" stop-color="#FFEE96"/><stop offset=".446" stop-color="#A2621E"/><stop offset=".667" stop-color="#EEA54C"/><stop offset="1" stop-color="#EEBE47"/></linearGradient><linearGradient id="paint20_linear_2_3206" x1="20.015" y1="55.368" x2="44.471" y2="87.527" gradientUnits="userSpaceOnUse"><stop stop-color="#EEBE47"/><stop offset=".12" stop-color="#F8DB77"/><stop offset=".21" stop-color="#FFEE96"/><stop offset=".446" stop-color="#A2621E"/><stop offset=".667" stop-color="#EEA54C"/><stop offset="1" stop-color="#EEBE47"/></linearGradient><linearGradient id="paint21_linear_2_3206" x1="22.125" y1="53.762" x2="46.581" y2="85.92" gradientUnits="userSpaceOnUse"><stop stop-color="#EEBE47"/><stop offset=".12" stop-color="#F8DB77"/><stop offset=".21" stop-color="#FFEE96"/><stop offset=".446" stop-color="#A2621E"/><stop offset=".667" stop-color="#EEA54C"/><stop offset="1" stop-color="#EEBE47"/></linearGradient><linearGradient id="paint22_linear_2_3206" x1="23.803" y1="52.484" x2="48.261" y2="84.644" gradientUnits="userSpaceOnUse"><stop stop-color="#EEBE47"/><stop offset=".12" stop-color="#F8DB77"/><stop offset=".21" stop-color="#FFEE96"/><stop offset=".446" stop-color="#A2621E"/><stop offset=".667" stop-color="#EEA54C"/><stop offset="1" stop-color="#EEBE47"/></linearGradient><linearGradient id="paint23_linear_2_3206" x1="25.906" y1="50.898" x2="50.356" y2="83.048" gradientUnits="userSpaceOnUse"><stop stop-color="#EEBE47"/><stop offset=".12" stop-color="#F8DB77"/><stop offset=".21" stop-color="#FFEE96"/><stop offset=".446" stop-color="#A2621E"/><stop offset=".667" stop-color="#EEA54C"/><stop offset="1" stop-color="#EEBE47"/></linearGradient><radialGradient id="paint0_radial_2_3206" cx="0" cy="0" r="1" gradientUnits="userSpaceOnUse" gradientTransform="translate(35.27 75.197) scale(31.6836)"><stop offset=".075" stop-color="#828282"/><stop offset=".195" stop-color="#A2A2A2"/><stop offset=".345" stop-color="#C4C4C4"/><stop offset=".499" stop-color="#DEDEDE"/><stop offset=".656" stop-color="#F0F0F0"/><stop offset=".82" stop-color="#FBFBFB"/><stop offset="1" stop-color="#fff"/></radialGradient><radialGradient id="paint7_radial_2_3206" cx="0" cy="0" r="1" gradientUnits="userSpaceOnUse" gradientTransform="translate(20.91 39.344) scale(46.1705)"><stop stop-color="#304053"/><stop offset=".226" stop-color="#2C3C4F"/><stop offset=".516" stop-color="#0D1D30"/><stop offset="1" stop-color="#060D29"/></radialGradient><radialGradient id="paint9_radial_2_3206" cx="0" cy="0" r="1" gradientUnits="userSpaceOnUse" gradientTransform="translate(22.457 41.215) scale(41.971)"><stop stop-color="#304053"/><stop offset=".226" stop-color="#2C3C4F"/><stop offset=".516" stop-color="#0D1D30"/><stop offset="1" stop-color="#060D29"/></radialGradient><radialGradient id="paint10_radial_2_3206" cx="0" cy="0" r="1" gradientUnits="userSpaceOnUse" gradientTransform="translate(24.256 37.956) scale(62.1934)"><stop stop-color="#FFF1D1"/><stop offset=".054" stop-color="#FFC94C"/><stop offset=".14" stop-color="#A2621E"/><stop offset=".163" stop-color="#965B1C"/><stop offset=".25" stop-color="#6E4314"/><stop offset=".343" stop-color="#4C2E0E"/><stop offset=".441" stop-color="#301D09"/><stop offset=".546" stop-color="#1B1005"/><stop offset=".663" stop-color="#0C0702"/><stop offset=".798" stop-color="#030201"/><stop offset="1"/></radialGradient></defs></svg>