<svg width="93" height="110" fill="none" xmlns="http://www.w3.org/2000/svg"><path d="M92.99 62.94c0 25.548-20.707 46.256-46.255 46.256C21.188 109.196.48 88.488.48 62.941c0-25.548 20.708-46.255 46.255-46.255 25.548 0 46.255 20.707 46.255 46.255z" fill="url(#paint0_radial_2_744)"/><path d="M61.736 45.939L42.904 53.48l20.625 51.507 6.772-10.367 12.058 2.825L61.737 45.94z" fill="url(#paint1_linear_2_744)"/><path d="M61.612 46.234L81.996 97.13l-11.64-2.73-.15-.034-.09.13-6.538 10.004L43.2 53.611l18.412-7.377zm.123-.295l-18.83 7.542 20.625 51.5 6.772-10.367 12.058 2.825-20.624-51.5z" fill="url(#paint2_linear_2_744)"/><path d="M42.032 47.603l18.831 7.541-20.625 51.501-6.772-10.367-12.059 2.825 20.625-51.5z" fill="url(#paint3_linear_2_744)"/><path d="M42.156 47.891l18.412 7.377-20.385 50.896-6.538-10.003-.083-.13-.15.033-11.64 2.73L42.156 47.89zm-.123-.288l-20.626 51.5 12.06-2.825 6.771 10.367 20.625-51.5-18.83-7.542z" fill="url(#paint4_linear_2_744)"/><path d="M84.052 62.384c-.014 2.255-1.801 4.6-3.967 5.218-2.165.619-4.585 2.846-5.362 4.964-.784 2.11-3.266 3.705-5.514 3.547-2.248-.165-5.28 1.114-6.737 2.826-1.458 1.719-4.339 2.372-6.394 1.45-2.056-.92-5.342-.763-7.301.351-1.96 1.114-4.882.743-6.504-.825-1.616-1.567-4.758-2.544-6.978-2.166-2.22.379-4.84-.969-5.83-2.997-.983-2.028-3.603-4.015-5.817-4.42-2.213-.406-4.22-2.572-4.448-4.813-.227-2.241-2.007-5.005-3.953-6.146-1.945-1.142-3.087-3.857-2.537-6.043.55-2.187-.178-5.39-1.615-7.13-1.437-1.732-1.582-4.682-.317-6.545 1.265-1.863 1.678-5.129.922-7.246-.757-2.124.117-4.936 1.938-6.256 1.83-1.32 3.328-4.242 3.342-6.497.013-2.255 1.794-4.6 3.967-5.218 2.165-.62 4.585-2.847 5.362-4.964.784-2.11 3.266-3.706 5.514-3.548 2.248.165 5.28-1.113 6.737-2.825 1.458-1.719 4.338-2.372 6.394-1.45 2.056.92 5.342.762 7.301-.352 1.96-1.113 4.882-.742 6.504.825 1.616 1.568 4.758 2.544 6.978 2.166 2.22-.378 4.84.97 5.83 2.998.983 2.028 3.603 4.015 5.816 4.42 2.214.406 4.222 2.572 4.449 4.813.233 2.241 2.007 5.005 3.953 6.146 1.945 1.141 3.087 3.857 2.537 6.043-.55 2.186.178 5.39 1.615 7.13 1.437 1.732 1.581 4.681.316 6.544-1.265 1.864-1.677 5.13-.92 7.247.755 2.124-.118 4.936-1.94 6.256-1.821 1.32-3.327 4.242-3.34 6.497z" fill="url(#paint5_linear_2_744)"/><path d="M13.014 41.01c0-20.715 16.788-37.504 37.503-37.504 20.714 0 37.503 16.79 37.503 37.503 0 20.715-16.789 37.504-37.503 37.504-20.708 0-37.503-16.79-37.503-37.504z" fill="url(#paint6_linear_2_744)"/><path d="M86.899 41.01c0 20.095-16.287 36.382-36.383 36.382-20.095 0-36.382-16.287-36.382-36.383 0-20.095 16.287-36.382 36.382-36.382C70.612 4.634 86.9 20.92 86.9 41.009z" fill="url(#paint7_radial_2_744)"/><path d="M16.416 41.01c0-18.831 15.27-34.1 34.1-34.1 18.831 0 34.1 15.269 34.1 34.1 0 18.83-15.269 34.1-34.1 34.1-18.83.006-34.1-15.263-34.1-34.1z" fill="url(#paint8_linear_2_744)"/><path d="M50.517 74.085c18.267 0 33.075-14.808 33.075-33.075 0-18.268-14.808-33.076-33.075-33.076-18.268 0-33.076 14.808-33.076 33.076 0 18.267 14.808 33.075 33.076 33.075z" fill="url(#paint9_radial_2_744)"/><path opacity=".2" d="M27.52 69.197l22.997-28.188-23.747 27.55c.248.22.495.433.75.639zm-3.122-2.874l26.125-25.307-26.798 24.6c.213.233.44.467.673.707zm18.22 10.203l7.905-35.51-8.862 35.29c.31.075.633.144.956.22zm-7.99-2.778L50.517 41.01 33.755 73.294c.289.159.578.31.873.454zm12.148 3.458l3.74-36.19L45.8 77.083c.33.04.653.089.977.123zm-8.236-1.842l11.977-34.355-12.905 34.018c.31.124.619.234.928.337zM14.78 47.816l35.736-6.806-35.908 5.836c.055.33.11.654.172.97zm-.543-4.2l36.28-2.606-36.342 1.622.062.983zm1.56 8.297l34.72-10.903-34.994 9.955c.096.316.178.639.275.948zm5.838 11.213l28.881-22.11-29.473 21.327c.2.254.392.522.592.783zm-2.38-3.506l31.262-18.61-31.75 17.758c.159.288.324.577.489.852zm-1.945-3.754l33.213-14.85-33.605 13.95c.124.302.255.598.392.9zm33.206 21.526c.166 0 .33-.007.495-.014l-.495-36.368-.488 36.368c.165.007.324.014.489.014zm26.806-11.784L50.523 41.01l26.125 25.307c.22-.233.454-.467.674-.708zm2.668-3.272L50.517 41.01l28.881 22.11c.207-.255.4-.523.592-.784zm4.132-7.37l-33.605-13.95 33.213 14.85c.13-.302.268-.598.391-.9zm-1.85 3.809L50.523 41.016l31.261 18.611c.165-.289.323-.57.488-.852zm4.16-11.922l-35.909-5.837 35.737 6.807c.055-.324.116-.647.171-.97zm-.922 4.111L50.516 41.01l34.72 10.903c.102-.31.185-.632.274-.948zM14.175 39.388l36.341 1.623-36.279-2.606-.062.983zm49.246 35.647L50.523 41.016 62.5 75.371c.302-.11.611-.22.92-.337zm10.849-6.476l-23.753-27.55L73.52 69.198c.255-.206.502-.42.75-.64zm-19.037 8.525l-4.716-36.067 3.74 36.19c.33-.034.653-.082.976-.123zm4.145-.784l-8.861-35.29 7.906 35.51c.323-.069.64-.138.955-.22zm11.537-5.156L50.516 41.016 70.09 71.68c.281-.179.556-.358.825-.536zm-3.63 2.158L50.517 41.016l15.888 32.74c.295-.152.59-.303.88-.455zm-36.342-1.629L50.516 41.01 30.119 71.136c.275.185.55.364.825.536zM73.52 12.829L50.523 41.016 74.27 13.468c-.248-.22-.495-.433-.75-.64zm-3.43-2.475L50.516 41.016l20.4-30.126c-.269-.192-.55-.364-.825-.536zm6.551 5.349L50.516 41.01l26.8-24.6c-.22-.24-.448-.474-.675-.707zM62.493 6.655L50.516 41.01 63.415 6.992a36.354 36.354 0 00-.921-.337zM79.398 18.9L50.517 41.01l29.466-21.326a28.797 28.797 0 00-.585-.784zM66.405 8.278L50.516 41.009 67.279 8.725c-.289-.15-.578-.302-.873-.446zM83.73 26.16L50.523 41.016 84.128 27.06c-.13-.302-.268-.605-.398-.9zm3.066 12.25l-36.28 2.606 36.342-1.622a23.34 23.34 0 00-.062-.983zm-.543-4.207L50.517 41.01l35.908-5.836a23.78 23.78 0 00-.172-.97zm.605 8.429L50.516 41.01l36.28 2.605c.027-.33.048-.653.062-.983zm-1.623-12.526L50.517 41.01l34.993-9.955c-.09-.317-.172-.633-.275-.95zM58.423 5.5l-7.907 35.51 8.862-35.29c-.316-.076-.632-.144-.955-.22zm23.354 16.9l-31.26 18.61 31.748-17.758c-.158-.282-.316-.57-.488-.852zM30.125 10.883L50.523 41.01 30.95 10.347c-.275.179-.557.35-.825.536zM21.05 19.69l29.466 21.326L21.636 18.9c-.2.26-.392.522-.585.79zm2.668-3.272l26.799 24.598L24.39 15.71c-.226.226-.453.46-.673.708zm-4.95 6.833L50.516 41.01l-31.26-18.611c-.165.282-.323.564-.488.852zm8.002-9.79L50.517 41.01 27.52 12.822c-.255.213-.502.426-.75.64zM54.257 4.82l-3.74 36.19 4.716-36.066c-.323-.041-.646-.09-.976-.124zM16.912 27.06l33.605 13.956L17.31 26.16c-.137.295-.268.598-.398.9zm-1.382 3.995l34.993 9.955-34.718-10.904c-.104.316-.186.632-.275.948zm-.922 4.118l35.909 5.837-35.737-6.807c-.062.323-.117.646-.172.97zm35.909-30.54c-.166 0-.324.008-.489.015l.489 36.368.494-36.368c-.165-.007-.33-.014-.495-.014zM41.655 5.72l8.861 35.29L42.617 5.5c-.323.076-.646.144-.962.22zm4.145-.777l4.717 36.067-3.74-36.19c-.324.034-.647.082-.977.123zm-8.18 2.049L50.523 41.01 38.54 6.655c-.31.11-.618.22-.921.337zm-3.864 1.732l16.76 32.286L34.629 8.279a34.6 34.6 0 00-.873.446z" fill="url(#paint10_radial_2_744)"/><path d="M48.159 60.053V31.687h-4.73v-3.878c1.334-.158 2.599-.66 3.809-1.512s2.07-1.884 2.599-3.1h3.877v36.856h-5.555z" fill="url(#paint11_linear_2_744)"/><path d="M71.56 45.306l-2.481-1.47-2.489 1.47.633-2.818-2.173-1.905 2.88-.275 1.142-2.654 1.148 2.654 2.88.268-2.172 1.912.633 2.818z" fill="url(#paint12_linear_2_744)"/><path d="M33.02 45.306l-2.49-1.47-2.481 1.47.632-2.818-2.172-1.905 2.88-.275 1.142-2.654 1.148 2.654 2.873.268-2.165 1.912.632 2.818z" fill="url(#paint13_linear_2_744)"/><path d="M47.038 12.361l1.498 5.047V12.36h1.135v7.508h-1.217L46.9 15.063v4.806h-1.134V12.36h1.272z" fill="url(#paint14_linear_2_744)"/><path d="M52.455 12.272c.502 0 .921.179 1.272.53.35.35.522.776.522 1.271v4.098c0 .502-.179.921-.53 1.272-.35.35-.776.522-1.271.522-.502 0-.921-.179-1.272-.53a1.76 1.76 0 01-.522-1.271v-4.098c0-.502.178-.92.529-1.272.357-.35.784-.522 1.272-.522zm.619 1.767a.633.633 0 00-.646-.646.644.644 0 00-.461.185.603.603 0 00-.193.46v4.105c0 .179.062.33.193.46.13.125.282.186.46.186.18 0 .33-.061.46-.185a.622.622 0 00.187-.46v-4.105z" fill="url(#paint15_linear_2_744)"/><path d="M55.034 18.741h1.134v1.135h-1.134V18.74z" fill="url(#paint16_linear_2_744)"/><path d="M38.065 67.43h-1.588v-.612h1.588v.612z" fill="url(#paint17_linear_2_744)"/><path d="M40.842 63.078h.983c.537 0 .929.13 1.183.392.254.261.378.674.378 1.23 0 .791-.302 1.286-.9 1.5.653.13.983.653.983 1.553 0 .495-.117.873-.358 1.141-.24.269-.577.406-1.017.406h-1.252v-6.222zm.825.64v2.158c.317-.007.55-.09.695-.247.144-.158.22-.427.22-.818 0-.42-.062-.709-.186-.867-.124-.15-.371-.227-.729-.227zm0 2.784v2.166c.33-.007.571-.076.709-.22.144-.138.213-.413.213-.812 0-.426-.07-.728-.213-.887-.145-.165-.379-.247-.709-.247z" fill="url(#paint18_linear_2_744)"/><path d="M47.229 69.293h-.873l-.976-2.915h-.076v2.915h-.839v-6.215h1.162c.949 0 1.423.53 1.423 1.588 0 .481-.069.846-.213 1.087-.137.24-.364.426-.68.55l1.072 2.99zm-1.918-3.486c.323-.006.564-.082.708-.233.144-.151.22-.42.22-.805 0-.37-.069-.639-.2-.797-.13-.158-.357-.24-.673-.24h-.048v2.076h-.007z" fill="url(#paint19_linear_2_744)"/><path d="M51.32 69.293h-.811l-.227-1.23h-1.313l-.234 1.23h-.79l1.34-6.215h.688l1.347 6.215zm-1.148-1.856l-.543-2.95h-.02l-.517 2.95h1.08z" fill="url(#paint20_linear_2_744)"/><path d="M55.246 69.293h-.66l-1.588-4.27h-.02v4.263h-.75v-6.215h.667l1.588 4.27.02.007v-4.27h.736v6.215h.007z" fill="url(#paint21_linear_2_744)"/><path d="M56.505 63.078h1.21c.57 0 1.024.213 1.354.646.33.434.495 1.245.495 2.434 0 1.148-.145 1.96-.433 2.427-.289.474-.812.708-1.56.708h-1.066v-6.215zm.838.64v4.95c.35 0 .619-.062.798-.193.185-.13.316-.371.405-.729.09-.357.138-.887.138-1.595 0-.907-.083-1.533-.255-1.89-.165-.358-.495-.537-.976-.537h-.11v-.006z" fill="url(#paint22_linear_2_744)"/><path d="M63.798 67.43H62.21v-.612h1.588v.612z" fill="url(#paint23_linear_2_744)"/><defs><linearGradient id="paint1_linear_2_744" x1="71.281" y1="97.326" x2="56.26" y2="59.346" gradientUnits="userSpaceOnUse"><stop stop-color="#EEBE47"/><stop offset=".12" stop-color="#F8DB77"/><stop offset=".21" stop-color="#FFEE96"/><stop offset=".446" stop-color="#A2621E"/><stop offset=".667" stop-color="#EEA54C"/><stop offset="1" stop-color="#EEBE47"/></linearGradient><linearGradient id="paint2_linear_2_744" x1="42.907" y1="75.464" x2="82.364" y2="75.464" gradientUnits="userSpaceOnUse"><stop stop-color="#EEBE47"/><stop offset=".12" stop-color="#F8DB77"/><stop offset=".21" stop-color="#FFEE96"/><stop offset=".446" stop-color="#A2621E"/><stop offset=".667" stop-color="#EEA54C"/><stop offset="1" stop-color="#EEBE47"/></linearGradient><linearGradient id="paint3_linear_2_744" x1="32.489" y1="98.987" x2="48.509" y2="58.48" gradientUnits="userSpaceOnUse"><stop stop-color="#EEBE47"/><stop offset=".12" stop-color="#F8DB77"/><stop offset=".21" stop-color="#FFEE96"/><stop offset=".446" stop-color="#A2621E"/><stop offset=".667" stop-color="#EEA54C"/><stop offset="1" stop-color="#EEBE47"/></linearGradient><linearGradient id="paint4_linear_2_744" x1="21.407" y1="77.125" x2="60.864" y2="77.125" gradientUnits="userSpaceOnUse"><stop stop-color="#EEBE47"/><stop offset=".12" stop-color="#F8DB77"/><stop offset=".21" stop-color="#FFEE96"/><stop offset=".446" stop-color="#A2621E"/><stop offset=".667" stop-color="#EEA54C"/><stop offset="1" stop-color="#EEBE47"/></linearGradient><linearGradient id="paint5_linear_2_744" x1="18.448" y1="10.636" x2="78.022" y2="67.063" gradientUnits="userSpaceOnUse"><stop stop-color="#EEBE47"/><stop offset=".12" stop-color="#F8DB77"/><stop offset=".21" stop-color="#FFEE96"/><stop offset=".446" stop-color="#A2621E"/><stop offset=".667" stop-color="#EEA54C"/><stop offset="1" stop-color="#EEBE47"/></linearGradient><linearGradient id="paint6_linear_2_744" x1="22.789" y1="71.916" x2="77.679" y2="10.744" gradientUnits="userSpaceOnUse"><stop stop-color="#EEBE47"/><stop offset=".12" stop-color="#F8DB77"/><stop offset=".21" stop-color="#FFEE96"/><stop offset=".446" stop-color="#A2621E"/><stop offset=".667" stop-color="#EEA54C"/><stop offset="1" stop-color="#EEBE47"/></linearGradient><linearGradient id="paint8_linear_2_744" x1="7.85" y1="2.47" x2="95.896" y2="82.001" gradientUnits="userSpaceOnUse"><stop stop-color="#EEBE47"/><stop offset=".12" stop-color="#F8DB77"/><stop offset=".21" stop-color="#FFEE96"/><stop offset=".446" stop-color="#A2621E"/><stop offset=".667" stop-color="#EEA54C"/><stop offset="1" stop-color="#EEBE47"/></linearGradient><linearGradient id="paint11_linear_2_744" x1="39.381" y1="24.424" x2="72.963" y2="74.393" gradientUnits="userSpaceOnUse"><stop stop-color="#EEBE47"/><stop offset=".12" stop-color="#F8DB77"/><stop offset=".21" stop-color="#FFEE96"/><stop offset=".446" stop-color="#A2621E"/><stop offset=".667" stop-color="#EEA54C"/><stop offset="1" stop-color="#EEBE47"/></linearGradient><linearGradient id="paint12_linear_2_744" x1="23.398" y1="15.697" x2="123.512" y2="73.792" gradientUnits="userSpaceOnUse"><stop stop-color="#EEBE47"/><stop offset=".12" stop-color="#F8DB77"/><stop offset=".21" stop-color="#FFEE96"/><stop offset=".446" stop-color="#A2621E"/><stop offset=".667" stop-color="#EEA54C"/><stop offset="1" stop-color="#EEBE47"/></linearGradient><linearGradient id="paint13_linear_2_744" x1="2.106" y1="25.707" x2="102.176" y2="83.778" gradientUnits="userSpaceOnUse"><stop stop-color="#EEBE47"/><stop offset=".12" stop-color="#F8DB77"/><stop offset=".21" stop-color="#FFEE96"/><stop offset=".446" stop-color="#A2621E"/><stop offset=".667" stop-color="#EEA54C"/><stop offset="1" stop-color="#EEBE47"/></linearGradient><linearGradient id="paint14_linear_2_744" x1="44.233" y1="10.925" x2="87.026" y2="74.601" gradientUnits="userSpaceOnUse"><stop stop-color="#EEBE47"/><stop offset=".12" stop-color="#F8DB77"/><stop offset=".21" stop-color="#FFEE96"/><stop offset=".446" stop-color="#A2621E"/><stop offset=".667" stop-color="#EEA54C"/><stop offset="1" stop-color="#EEBE47"/></linearGradient><linearGradient id="paint15_linear_2_744" x1="47.495" y1="8.73" x2="90.295" y2="72.415" gradientUnits="userSpaceOnUse"><stop stop-color="#EEBE47"/><stop offset=".12" stop-color="#F8DB77"/><stop offset=".21" stop-color="#FFEE96"/><stop offset=".446" stop-color="#A2621E"/><stop offset=".667" stop-color="#EEA54C"/><stop offset="1" stop-color="#EEBE47"/></linearGradient><linearGradient id="paint16_linear_2_744" x1="48.182" y1="8.276" x2="90.96" y2="71.93" gradientUnits="userSpaceOnUse"><stop stop-color="#EEBE47"/><stop offset=".12" stop-color="#F8DB77"/><stop offset=".21" stop-color="#FFEE96"/><stop offset=".446" stop-color="#A2621E"/><stop offset=".667" stop-color="#EEA54C"/><stop offset="1" stop-color="#EEBE47"/></linearGradient><linearGradient id="paint17_linear_2_744" x1="17.001" y1="40.471" x2="52.084" y2="86.603" gradientUnits="userSpaceOnUse"><stop stop-color="#EEBE47"/><stop offset=".12" stop-color="#F8DB77"/><stop offset=".21" stop-color="#FFEE96"/><stop offset=".446" stop-color="#A2621E"/><stop offset=".667" stop-color="#EEA54C"/><stop offset="1" stop-color="#EEBE47"/></linearGradient><linearGradient id="paint18_linear_2_744" x1="20.301" y1="37.948" x2="55.394" y2="84.094" gradientUnits="userSpaceOnUse"><stop stop-color="#EEBE47"/><stop offset=".12" stop-color="#F8DB77"/><stop offset=".21" stop-color="#FFEE96"/><stop offset=".446" stop-color="#A2621E"/><stop offset=".667" stop-color="#EEA54C"/><stop offset="1" stop-color="#EEBE47"/></linearGradient><linearGradient id="paint19_linear_2_744" x1="22.619" y1="36.185" x2="57.712" y2="82.331" gradientUnits="userSpaceOnUse"><stop stop-color="#EEBE47"/><stop offset=".12" stop-color="#F8DB77"/><stop offset=".21" stop-color="#FFEE96"/><stop offset=".446" stop-color="#A2621E"/><stop offset=".667" stop-color="#EEA54C"/><stop offset="1" stop-color="#EEBE47"/></linearGradient><linearGradient id="paint20_linear_2_744" x1="24.851" y1="34.49" x2="59.943" y2="80.634" gradientUnits="userSpaceOnUse"><stop stop-color="#EEBE47"/><stop offset=".12" stop-color="#F8DB77"/><stop offset=".21" stop-color="#FFEE96"/><stop offset=".446" stop-color="#A2621E"/><stop offset=".667" stop-color="#EEA54C"/><stop offset="1" stop-color="#EEBE47"/></linearGradient><linearGradient id="paint21_linear_2_744" x1="27.881" y1="32.186" x2="62.972" y2="78.329" gradientUnits="userSpaceOnUse"><stop stop-color="#EEBE47"/><stop offset=".12" stop-color="#F8DB77"/><stop offset=".21" stop-color="#FFEE96"/><stop offset=".446" stop-color="#A2621E"/><stop offset=".667" stop-color="#EEA54C"/><stop offset="1" stop-color="#EEBE47"/></linearGradient><linearGradient id="paint22_linear_2_744" x1="30.289" y1="30.352" x2="65.383" y2="76.498" gradientUnits="userSpaceOnUse"><stop stop-color="#EEBE47"/><stop offset=".12" stop-color="#F8DB77"/><stop offset=".21" stop-color="#FFEE96"/><stop offset=".446" stop-color="#A2621E"/><stop offset=".667" stop-color="#EEA54C"/><stop offset="1" stop-color="#EEBE47"/></linearGradient><linearGradient id="paint23_linear_2_744" x1="33.306" y1="28.076" x2="68.389" y2="74.208" gradientUnits="userSpaceOnUse"><stop stop-color="#EEBE47"/><stop offset=".12" stop-color="#F8DB77"/><stop offset=".21" stop-color="#FFEE96"/><stop offset=".446" stop-color="#A2621E"/><stop offset=".667" stop-color="#EEA54C"/><stop offset="1" stop-color="#EEBE47"/></linearGradient><radialGradient id="paint0_radial_2_744" cx="0" cy="0" r="1" gradientUnits="userSpaceOnUse" gradientTransform="translate(46.736 62.942) scale(45.4621)"><stop offset=".075" stop-color="#828282"/><stop offset=".195" stop-color="#A2A2A2"/><stop offset=".345" stop-color="#C4C4C4"/><stop offset=".499" stop-color="#DEDEDE"/><stop offset=".656" stop-color="#F0F0F0"/><stop offset=".82" stop-color="#FBFBFB"/><stop offset="1" stop-color="#fff"/></radialGradient><radialGradient id="paint7_radial_2_744" cx="0" cy="0" r="1" gradientUnits="userSpaceOnUse" gradientTransform="translate(26.134 11.498) scale(66.2489)"><stop stop-color="#304053"/><stop offset=".226" stop-color="#2C3C4F"/><stop offset=".516" stop-color="#0D1D30"/><stop offset="1" stop-color="#060D29"/></radialGradient><radialGradient id="paint9_radial_2_744" cx="0" cy="0" r="1" gradientUnits="userSpaceOnUse" gradientTransform="translate(28.353 14.182) scale(60.2233)"><stop stop-color="#304053"/><stop offset=".226" stop-color="#2C3C4F"/><stop offset=".516" stop-color="#0D1D30"/><stop offset="1" stop-color="#060D29"/></radialGradient><radialGradient id="paint10_radial_2_744" cx="0" cy="0" r="1" gradientUnits="userSpaceOnUse" gradientTransform="translate(30.933 9.507) scale(89.2398)"><stop stop-color="#FFF1D1"/><stop offset=".054" stop-color="#FFC94C"/><stop offset=".14" stop-color="#A2621E"/><stop offset=".163" stop-color="#965B1C"/><stop offset=".25" stop-color="#6E4314"/><stop offset=".343" stop-color="#4C2E0E"/><stop offset=".441" stop-color="#301D09"/><stop offset=".546" stop-color="#1B1005"/><stop offset=".663" stop-color="#0C0702"/><stop offset=".798" stop-color="#030201"/><stop offset="1"/></radialGradient></defs></svg>