<svg width="36" height="36" fill="none" xmlns="http://www.w3.org/2000/svg"><g clip-path="url(#clip0_2_245)"><path fill-rule="evenodd" clip-rule="evenodd" d="M.477 17.74c0 8.771 6.37 16.064 14.702 17.543V22.542h-4.41v-4.9h4.41V13.72c0-4.41 2.841-6.86 6.86-6.86 1.274 0 2.647.196 3.92.391v4.51h-2.253c-2.157 0-2.647 1.077-2.647 2.45v3.43h4.705l-.784 4.9h-3.92v12.741c8.33-1.479 14.7-8.77 14.7-17.543C35.76 7.983 27.823 0 18.12 0S.477 7.983.477 17.74z" fill="#272727"/></g><defs><clipPath id="clip0_2_245"><path fill="#fff" transform="translate(.477)" d="M0 0h35.283v35.283H0z"/></clipPath></defs></svg>