<svg width="36" height="36" fill="none" xmlns="http://www.w3.org/2000/svg"><path fill-rule="evenodd" clip-rule="evenodd" d="M11.691 1.567c1.725-.08 2.274-.097 6.667-.097s4.943.02 6.666.097c1.723.078 2.899.353 3.928.751a7.956 7.956 0 012.864 1.868 7.898 7.898 0 011.864 2.862c.4 1.029.673 2.205.753 3.925.08 1.728.097 2.277.097 6.669 0 4.393-.02 4.942-.097 6.667-.078 1.72-.353 2.896-.753 3.925a7.932 7.932 0 01-1.864 2.865 7.928 7.928 0 01-2.864 1.865c-1.029.4-2.205.673-3.925.752-1.726.08-2.276.097-6.669.097s-4.942-.019-6.667-.097c-1.72-.078-2.896-.353-3.925-.752A7.934 7.934 0 014.9 31.099a7.927 7.927 0 01-1.866-2.863c-.398-1.03-.672-2.206-.751-3.926-.08-1.727-.097-2.277-.097-6.668 0-4.393.019-4.943.097-6.666.078-1.723.353-2.899.75-3.928a7.933 7.933 0 011.868-2.864 7.927 7.927 0 012.862-1.866c1.03-.398 2.206-.671 3.926-.75h.001zm13.202 2.911c-1.705-.078-2.217-.094-6.535-.094s-4.83.016-6.535.094c-1.577.072-2.433.335-3.003.557a5.022 5.022 0 00-1.86 1.209 5.016 5.016 0 00-1.208 1.86c-.222.57-.485 1.425-.557 3.003-.078 1.705-.095 2.217-.095 6.535 0 4.317.017 4.83.095 6.535.072 1.577.335 2.433.557 3.003a5.02 5.02 0 001.208 1.86 5.02 5.02 0 001.86 1.208c.57.222 1.426.485 3.003.557 1.706.078 2.216.095 6.535.095 4.32 0 4.83-.017 6.535-.095 1.578-.072 2.433-.335 3.003-.557a5.021 5.021 0 001.86-1.208 5.02 5.02 0 001.209-1.86c.222-.57.485-1.426.557-3.003.078-1.706.094-2.218.094-6.535 0-4.318-.016-4.83-.094-6.535-.072-1.578-.335-2.433-.557-3.004a5.021 5.021 0 00-1.209-1.86 5.017 5.017 0 00-1.86-1.208c-.57-.222-1.425-.485-3.003-.557zm-8.6 18.149a5.394 5.394 0 005.88-8.8 5.395 5.395 0 10-5.88 8.8zM12.48 11.764a8.312 8.312 0 1111.754 11.754A8.312 8.312 0 0112.48 11.764zm16.033-1.197a1.966 1.966 0 10-2.698-2.86 1.966 1.966 0 002.698 2.86z" fill="#272727"/></svg>