<svg width="36" height="37" fill="none" xmlns="http://www.w3.org/2000/svg"><g clip-path="url(#clip0_2_249)"><path d="M35.283 18.406a17.642 17.642 0 11-35.283 0 17.642 17.642 0 0135.283 0zm-17.008-4.618c-1.716.715-5.147 2.192-10.29 4.433-.833.33-1.272.657-1.312.974-.066.536.606.748 1.522 1.037l.385.121c.9.293 2.113.635 2.742.648.573.014 1.21-.22 1.914-.705 4.805-3.244 7.286-4.883 7.44-4.918.11-.026.265-.057.366.035.104.09.093.265.082.311-.066.285-2.706 2.737-4.071 4.007-.426.397-.728.677-.79.741-.136.14-.274.276-.414.41-.838.807-1.464 1.412.033 2.4.721.476 1.299.866 1.874 1.259.627.428 1.253.853 2.064 1.387.206.132.404.275.596.412.73.52 1.39.988 2.198.913.472-.044.96-.485 1.207-1.808.584-3.125 1.733-9.893 1.998-12.682a3.141 3.141 0 00-.029-.695.743.743 0 00-.251-.478 1.16 1.16 0 00-.684-.206c-.662.011-1.683.367-6.58 2.404z" fill="#272727"/></g><defs><clipPath id="clip0_2_249"><path fill="#fff" transform="translate(0 .764)" d="M0 0h35.283v35.283H0z"/></clipPath></defs></svg>