<svg width="36" height="37" fill="none" xmlns="http://www.w3.org/2000/svg"><path d="M24.823 21.435c-.375-.193-2.247-1.11-2.595-1.234-.348-.13-.603-.193-.854.193-.255.383-.979 1.234-1.206 1.492-.22.255-.444.286-.82.097-2.233-1.117-3.697-1.992-5.168-4.518-.39-.672.389-.623 1.116-2.074.124-.255.062-.472-.035-.665-.096-.193-.854-2.06-1.171-2.822-.307-.74-.624-.637-.855-.651-.22-.014-.472-.014-.727-.014s-.665.096-1.013.472c-.348.383-1.33 1.303-1.33 3.17s1.361 3.677 1.547 3.931c.193.255 2.678 4.087 6.492 5.737 2.412 1.041 3.356 1.13 4.562.951.734-.11 2.247-.916 2.56-1.808.314-.89.314-1.65.22-1.81-.092-.168-.347-.265-.723-.447z" fill="#272727"/><path d="M32.119 12.424A15.442 15.442 0 0028.8 7.487a15.311 15.311 0 00-4.938-3.319 15.363 15.363 0 00-5.982-1.199h-.069A15.4 15.4 0 006.908 7.531a15.297 15.297 0 00-3.28 4.92 15.442 15.442 0 00-1.182 6.027c.01 2.391.582 4.765 1.654 6.888v5.237c0 .876.71 1.585 1.585 1.585h5.24a15.486 15.486 0 006.889 1.654h.072c2.064 0 4.066-.4 5.95-1.181a15.316 15.316 0 004.92-3.28 15.4 15.4 0 004.562-10.905 15.378 15.378 0 00-1.198-6.052zm-5.207 15.092a12.75 12.75 0 01-9.03 3.708h-.06a12.864 12.864 0 01-5.964-1.5l-.289-.154H6.717v-4.852l-.155-.29a12.863 12.863 0 01-1.498-5.964c-.014-3.435 1.299-6.66 3.707-9.09a12.721 12.721 0 019.055-3.786h.059c1.723 0 3.394.334 4.968.996a12.736 12.736 0 014.1 2.756 12.754 12.754 0 012.757 4.1 12.764 12.764 0 01.996 5.024 12.768 12.768 0 01-3.794 9.052z" fill="#272727"/></svg>