<svg width="142" height="41" fill="none" xmlns="http://www.w3.org/2000/svg"><path d="M47.244 31a.51.51 0 01-.374-.154.51.51 0 01-.154-.374V16.15c0-.161.051-.293.154-.396a.51.51 0 01.374-.154h5.896c1.144 0 2.141.183 2.992.55.85.352 1.51.895 1.98 1.628.47.719.704 1.62.704 2.706 0 1.1-.235 2.01-.704 2.728-.47.704-1.13 1.232-1.98 1.584-.85.352-1.848.528-2.992.528h-3.278v5.148a.51.51 0 01-.154.374.466.466 0 01-.374.154h-2.09zm2.574-8.118h3.212c.85 0 1.503-.198 1.958-.594.455-.41.682-1.012.682-1.804 0-.733-.213-1.32-.638-1.76-.425-.455-1.093-.682-2.002-.682h-3.212v4.84zM66.376 31c-.234 0-.418-.059-.55-.176a.999.999 0 01-.286-.44L60.832 16.26a.539.539 0 01-.044-.198.448.448 0 01.462-.462h1.936c.206 0 .36.059.462.176.118.103.19.205.22.308l3.718 11.33 3.696-11.33c.044-.103.118-.205.22-.308.118-.117.279-.176.484-.176h1.936c.118 0 .22.044.308.132a.417.417 0 01.154.33.54.54 0 01-.044.198l-4.708 14.124a1 1 0 01-.286.44c-.132.117-.315.176-.55.176h-2.42zm11.106 0a.51.51 0 01-.373-.154.536.536 0 01-.154-.396v-1.54c0-.22.044-.396.132-.528a6.48 6.48 0 01.197-.286l7.656-9.9h-7.237a.536.536 0 01-.397-.154.555.555 0 01-.132-.374V16.15c0-.161.044-.293.132-.396a.536.536 0 01.397-.154h10.516c.16 0 .293.051.396.154a.536.536 0 01.154.396v1.518c0 .176-.03.323-.089.44a2.468 2.468 0 01-.198.33l-7.501 9.944h7.48c.16 0 .293.051.395.154a.536.536 0 01.154.396v1.54a.51.51 0 01-.154.374.536.536 0 01-.395.154H77.483zm20.992.22c-1.364 0-2.523-.235-3.476-.704-.94-.484-1.658-1.166-2.156-2.046-.5-.895-.778-1.965-.836-3.212a85.104 85.104 0 010-3.916c.058-1.232.337-2.295.836-3.19a5.063 5.063 0 012.178-2.046c.953-.484 2.104-.726 3.454-.726.997 0 1.892.132 2.684.396.792.264 1.466.63 2.024 1.1.557.455.99.99 1.298 1.606.308.616.469 1.283.484 2.002a.363.363 0 01-.132.33.448.448 0 01-.33.132h-2.09a.663.663 0 01-.396-.11c-.103-.088-.176-.227-.22-.418-.235-.968-.638-1.628-1.21-1.98-.572-.352-1.284-.528-2.134-.528-.983 0-1.768.279-2.354.836-.587.543-.902 1.445-.946 2.706a51.753 51.753 0 000 3.696c.044 1.261.359 2.17.946 2.728.586.543 1.37.814 2.354.814.85 0 1.562-.176 2.134-.528.572-.367.975-1.027 1.21-1.98.044-.205.117-.345.22-.418a.663.663 0 01.396-.11h2.09c.132 0 .242.044.33.132a.363.363 0 01.132.33 4.635 4.635 0 01-.484 2.002 5.103 5.103 0 01-1.298 1.628c-.558.455-1.232.814-2.024 1.078-.792.264-1.687.396-2.684.396zm16.117 0c-1.306 0-2.428-.213-3.366-.638a4.927 4.927 0 01-2.2-2.002c-.528-.91-.814-2.039-.858-3.388a78.632 78.632 0 010-3.762c.044-1.335.337-2.45.88-3.344a5.192 5.192 0 012.222-2.024c.953-.455 2.06-.682 3.322-.682 1.261 0 2.368.227 3.322.682a5.175 5.175 0 012.244 2.024c.542.895.836 2.01.88 3.344a40.717 40.717 0 010 3.762c-.044 1.35-.33 2.479-.858 3.388a4.908 4.908 0 01-2.222 2.002c-.939.425-2.061.638-3.366.638zm0-2.53c.953 0 1.73-.279 2.332-.836.601-.572.924-1.496.968-2.772.029-.645.044-1.24.044-1.782 0-.557-.015-1.151-.044-1.782-.03-.85-.191-1.54-.484-2.068-.279-.543-.66-.931-1.144-1.166-.484-.25-1.042-.374-1.672-.374-.616 0-1.166.125-1.65.374-.484.235-.873.623-1.166 1.166-.279.528-.433 1.217-.462 2.068a75.052 75.052 0 000 3.564c.044 1.276.366 2.2.968 2.772.601.557 1.371.836 2.31.836zM125.62 31a.534.534 0 01-.396-.154.508.508 0 01-.154-.374V16.15c0-.161.051-.293.154-.396a.534.534 0 01.396-.154h1.738c.205 0 .359.059.462.176.102.103.168.183.198.242l4.246 7.92 4.29-7.92a1.05 1.05 0 01.198-.242c.102-.117.256-.176.462-.176h1.716c.161 0 .293.051.396.154a.539.539 0 01.154.396v14.322a.512.512 0 01-.154.374.537.537 0 01-.396.154h-1.848a.534.534 0 01-.396-.154.555.555 0 01-.132-.374v-9.526l-3.08 5.874c-.074.132-.169.25-.286.352a.753.753 0 01-.462.132h-.902c-.206 0-.367-.044-.484-.132a1.56 1.56 0 01-.264-.352l-3.08-5.874v9.526a.512.512 0 01-.154.374.51.51 0 01-.374.154h-1.848z" fill="#FDDB3F"/><path d="M23.666 35.001l-3.431 4.06-3.3-3.924-.064-.076-.076-.066-5.827-5.027C5.901 24.867 5.912 16.623 11 11.535l.535-.535c5.1-5.099 13.366-5.099 18.465 0s5.099 13.366 0 18.465l-.236.236-5.962 5.162-.073.064-.063.074z" stroke="#FFD61B" stroke-width="2.5"/><path transform="rotate(-45 17.797 20.313)" fill="url(#paint0_diamond_2_818)" stroke="#FFD61B" stroke-width="3.855" d="M17.797 20.313h3.855v3.855h-3.855z"/><mask id="path-4-inside-1_2_818" fill="#fff"><path d="M17.335 29.405l2.942-1.906-6.84-6.84-1.913 2.743 5.811 6.003z"/></mask><path d="M17.335 29.405l2.942-1.906-6.84-6.84-1.913 2.743 5.811 6.003z" fill="url(#paint1_linear_2_818)"/><path d="M17.335 29.405l25.486 39.339-32.354 20.96-26.812-27.699 33.68-32.6zm2.942-1.906L53.421-5.645 94.397 35.33 45.763 66.838 20.277 27.499zm-6.84-6.84l-38.44-26.821 32.018-45.89 39.566 39.567-33.144 33.144zm-1.913 2.743l-33.68 32.6-26.86-27.75 22.1-31.672 38.44 26.822zM-8.151-9.933l2.943-1.907 50.97 78.678-2.941 1.906L-8.151-9.933zm-4.716 70.576l-6.84-6.84 66.288-66.288 6.84 6.84-66.288 66.288zM51.878 47.48l-1.914 2.743-76.88-53.643 1.913-2.742 76.88 53.642zM45.203-9.198l5.811 6.003-67.359 65.2-5.81-6.004 67.358-65.2z" fill="#FFD61B" mask="url(#path-4-inside-1_2_818)"/><mask id="path-6-inside-2_2_818" fill="#fff"><path d="M23.876 29.405L20.933 27.5l6.84-6.84 1.914 2.743-5.811 6.003z"/></mask><path d="M23.876 29.405L20.933 27.5l6.84-6.84 1.914 2.743-5.811 6.003z" fill="url(#paint2_linear_2_818)"/><path d="M23.876 29.405L-1.61 68.744l32.354 20.96 26.811-27.699-33.68-32.6zM20.933 27.5L-12.21-5.645-53.186 35.33l48.634 31.508 25.485-39.339zm6.84-6.84l38.44-26.821-32.017-45.89-39.567 39.567L27.773 20.66zm1.914 2.743l33.68 32.6 26.86-27.75-22.1-31.672-38.44 26.822zM49.361-9.933L46.42-11.84-4.552 66.838l2.942 1.906L49.361-9.933zm4.716 70.576l6.84-6.84L-5.37-12.485l-6.84 6.84 66.288 66.288zM-10.667 47.48l1.913 2.743L68.127-3.42l-1.913-2.742-76.881 53.642zm6.675-56.678l-5.812 6.003 67.36 65.2 5.81-6.004-67.358-65.2z" fill="#FFD61B" mask="url(#path-6-inside-2_2_818)"/><mask id="path-8-inside-3_2_818" fill="#fff"><path d="M17.335 11.227l2.942 1.907-6.84 6.84-1.913-2.743 5.811-6.004z"/></mask><path d="M17.335 11.227l2.942 1.907-6.84 6.84-1.913-2.743 5.811-6.004z" fill="url(#paint3_linear_2_818)"/><path d="M17.335 11.227L42.821-28.11 10.467-49.07l-26.812 27.699 33.68 32.6zm2.942 1.907l33.144 33.144L94.397 5.302 45.763-26.205 20.277 13.134zm-6.84 6.84l-38.44 26.821L7.015 92.684l39.566-39.566-33.144-33.144zm-1.913-2.743l-33.68-32.6-26.86 27.75 22.1 31.672 38.44-26.822zM-8.151 50.566l2.943 1.906 50.97-78.677-2.941-1.906-50.972 78.677zm-4.716-70.576l-6.84 6.84 66.288 66.288 6.84-6.84-66.288-66.288zM51.878-6.847L49.964-9.59l-76.88 53.642 1.913 2.743 76.88-53.642zM45.203 49.83l5.811-6.004-67.359-65.2-5.81 6.004 67.358 65.2z" fill="#FFD61B" mask="url(#path-8-inside-3_2_818)"/><mask id="path-10-inside-4_2_818" fill="#fff"><path d="M23.876 11.227l-2.943 1.907 6.84 6.84 1.914-2.743-5.811-6.004z"/></mask><path d="M23.876 11.227l-2.943 1.907 6.84 6.84 1.914-2.743-5.811-6.004z" fill="url(#paint4_linear_2_818)"/><path d="M23.876 11.227L-1.61-28.11l32.354-20.96 26.811 27.699-33.68 32.6zm-2.943 1.907L-12.21 46.278-53.186 5.302l48.634-31.507 25.485 39.339zm6.84 6.84l38.44 26.821-32.017 45.889-39.567-39.566 33.144-33.144zm1.914-2.743l33.68-32.6 26.86 27.75-22.1 31.672-38.44-26.822zm19.674 33.335l-2.942 1.906-50.971-78.677 2.942-1.906 50.971 78.677zm4.716-70.576l6.84 6.84L-5.37 53.118l-6.84-6.84L54.077-20.01zM-10.667-6.847l1.913-2.743 76.881 53.642-1.913 2.743-76.881-53.642zm6.675 56.678l-5.812-6.004 67.36-65.2 5.81 6.004-67.358 65.2z" fill="#FFD61B" mask="url(#path-10-inside-4_2_818)"/><defs><linearGradient id="paint1_linear_2_818" x1="17.282" y1="24.72" x2="15.072" y2="26.931" gradientUnits="userSpaceOnUse"><stop stop-color="#A6A6A6"/><stop offset="1" stop-color="#A6A6A6"/></linearGradient><linearGradient id="paint2_linear_2_818" x1="23.914" y1="24.318" x2="25.924" y2="26.328" gradientUnits="userSpaceOnUse"><stop stop-color="#A6A6A6"/><stop offset="1" stop-color="#A6A6A6"/></linearGradient><linearGradient id="paint3_linear_2_818" x1="17.483" y1="16.279" x2="15.273" y2="14.068" gradientUnits="userSpaceOnUse"><stop stop-color="#A6A6A6"/><stop offset="1" stop-color="#A6A6A6"/></linearGradient><linearGradient id="paint4_linear_2_818" x1="24.316" y1="16.681" x2="26.527" y2="14.47" gradientUnits="userSpaceOnUse"><stop stop-color="#A7A7A7"/><stop offset="1" stop-color="#A6A6A6"/></linearGradient><radialGradient id="paint0_diamond_2_818" cx="0" cy="0" r="1" gradientUnits="userSpaceOnUse" gradientTransform="rotate(90 -2.621 21.547) scale(3.85508)"><stop stop-color="#A6A6A6"/><stop offset="1" stop-color="#A6A6A6"/></radialGradient></defs></svg>