<svg width="425" height="419" fill="none" xmlns="http://www.w3.org/2000/svg"><g clip-path="url(#clip0_2_682)"><path d="M67.77 246.582l-29.48 2.738 10.85 10.85-25.105 25.106c-1.362 1.362-1.362 3.579 0 4.955a3.499 3.499 0 004.954 0l25.106-25.106 10.938 10.938 2.738-29.481z" fill="#5F56FF"/><path d="M220.332 411.095c0 4.259-37.492 7.707-83.749 7.707s-83.749-3.448-83.749-7.707 37.492-7.707 83.749-7.707 83.749 3.448 83.749 7.707z" fill="url(#paint0_radial_2_682)"/><path d="M311.149 382.483c37.804 0 68.451-3.437 68.451-7.678 0-4.24-30.647-7.678-68.451-7.678-37.804 0-68.451 3.438-68.451 7.678 0 4.241 30.647 7.678 68.451 7.678z" fill="url(#paint1_radial_2_682)"/><path d="M31.74 385.28c16.978 0 30.741-1.252 30.741-2.796 0-1.545-13.763-2.796-30.741-2.796S.999 380.939.999 382.484c0 1.544 13.763 2.796 30.74 2.796z" fill="url(#paint2_radial_2_682)"/><path d="M202.179 202.107c-4.622 0-7.852-3.318-7.852-8.055s3.23-8.054 7.852-8.054c4.621 0 7.852 3.317 7.852 8.054 0 4.752-3.231 8.055-7.852 8.055zm0-12.053c-2.101 0-3.318 1.463-3.318 4.013 0 2.549 1.203 4.013 3.318 4.013 2.071 0 3.259-1.464 3.259-4.013 0-2.55-1.188-4.013-3.259-4.013zm-22.513 11.517l21.513-36.637h5.505l-21.455 36.637h-5.563zm4.563-21.093c-4.621 0-7.852-3.317-7.852-8.055 0-4.708 3.231-7.996 7.852-7.996 4.651 0 7.896 3.288 7.896 7.996.014 4.752-3.245 8.055-7.896 8.055zm0-12.053c-2.071 0-3.259 1.463-3.259 4.013 0 2.578 1.188 4.056 3.259 4.056 2.072 0 3.318-1.521 3.318-4.056 0-2.55-1.203-4.013-3.318-4.013z" fill="#D65EFF"/><path d="M366.983 128.064H229.328l27.25 27.25-125.703 129.223 67.06 75.434 132.584-130.716 36.464 36.464V128.064z" fill="#5F56FF"/><path d="M198.267 349.815l-57.832-65.06 125.978-129.499-20.18-20.18H359.97v113.737l-29.423-29.423-132.28 130.425zm-50.183-64.901l50.458 56.76L330.59 211.48l23.788 23.787v-94.599h-94.629l14.531 14.53-126.196 129.716z" fill="#C2BFFF"/><path d="M235.108 264.502l-42.968-42.954-61.265 62.989 67.06 75.434 2.752-2.709 34.421-92.76z" fill="#4E45F7"/><path d="M235.108 264.516l-73.939-73.939L35.182 316.564l73.939 73.94 125.987-125.988z" fill="#766FFF"/><path d="M164.109 288.217c14.722 0 26.656-11.934 26.656-26.656s-11.934-26.656-26.656-26.656-26.656 11.934-26.656 26.656 11.934 26.656 26.656 26.656z" fill="#C2BFFF"/><path d="M109.913 354.393a8.387 8.387 0 100-16.775 8.388 8.388 0 100 16.775zm-32.131-29.335a8.388 8.388 0 100-16.777 8.388 8.388 0 000 16.777z" fill="#A09AFF"/><path d="M226.589 255.998l-117.46 116.678-56.122-56.108L170.482 199.89l-3.955-3.969L45.083 316.554l64.032 64.032 121.444-120.633-3.97-3.955z" fill="#C2BFFF"/><path d="M251.998 299.56c-.435-24.004 18.659-43.808 42.664-44.257 23.99-.435 43.808 18.659 44.243 42.664.434 23.99-18.659 43.808-42.65 44.257-24.005.435-43.823-18.659-44.257-42.664z" fill="#5A30FF"/><path d="M260.297 299.401c-.362-19.427 15.096-35.435 34.508-35.797 19.413-.348 35.435 15.095 35.797 34.508.363 19.412-15.095 35.449-34.507 35.797-19.413.362-35.45-15.081-35.798-34.508z" fill="#9F64FF"/><path d="M295.43 337.589c-10.097 0-19.63-3.839-26.931-10.88-7.461-7.2-11.676-16.877-11.865-27.25-.188-10.373 3.665-20.195 10.865-27.655 7.2-7.461 16.878-11.677 27.25-11.865h.71c21.079 0 38.419 16.949 38.811 38.115.188 10.372-3.666 20.195-10.866 27.655-7.2 7.476-16.877 11.691-27.235 11.88h-.739zm.029-76.26h-.695c-9.996.189-19.326 4.245-26.265 11.445s-10.662 16.66-10.474 26.656c.188 9.996 4.245 19.326 11.445 26.265s16.616 10.691 26.656 10.474c9.996-.188 19.325-4.245 26.264-11.445 6.94-7.2 10.663-16.674 10.474-26.67-.376-20.383-17.094-36.725-37.405-36.725z" fill="#457FEF"/><path d="M289.911 320.305c-3.1-.376-6.041-1.391-8.112-2.796l-1.739-1.202 3.202-9.446 3.013 1.927c1.985 1.26 4.52 1.985 6.954 1.985h.217c2.014-.044 4.361-.898 4.303-3.187-.029-1.232-.449-2.68-5.143-4.477-5.809-2.158-11.793-5.389-11.937-12.806-.102-5.578 3.389-10.199 8.88-12.068l-.13-3.882 9.344-.189.101 3.303c2.376.319 4.52 1.014 6.49 2.13l2.057 1.159-3.332 9.329-2.882-1.579c-.855-.463-2.854-1.564-5.984-1.564h-.246c-2.274.043-3.564.941-3.535 2.448.015 1.116.449 2.072 5.824 4.172 5.186 2.014 11.169 5.346 11.314 13.415.116 5.853-3.534 10.692-9.286 12.618l.131 4.057-9.402.188-.102-3.535zM-.002 311.701c-.304-16.848 13.096-30.756 29.945-31.075 16.848-.304 30.756 13.097 31.06 29.959.304 16.849-13.096 30.756-29.945 31.06-16.833.304-30.74-13.096-31.06-29.944z" fill="#5A30FF"/><path d="M5.837 311.585c-.26-13.632 10.59-24.874 24.223-25.135 13.632-.246 24.874 10.59 25.134 24.222.261 13.633-10.59 24.889-24.222 25.135-13.646.261-24.888-10.59-25.135-24.222z" fill="#9F64FF"/><path d="M30.491 338.4c-7.084 0-13.777-2.695-18.905-7.635-5.244-5.055-8.2-11.85-8.33-19.122-.13-7.287 2.579-14.183 7.62-19.413 5.056-5.244 11.85-8.199 19.123-8.33h.507c14.805 0 26.974 11.894 27.25 26.758.13 7.272-2.58 14.168-7.62 19.412-5.056 5.244-11.85 8.2-19.123 8.33h-.522zm.015-53.529h-.493c-7.012.13-13.56 2.984-18.442 8.026-4.867 5.056-7.475 11.705-7.345 18.717.13 7.011 2.985 13.559 8.04 18.442 5.057 4.867 11.663 7.504 18.718 7.359 7.011-.13 13.56-2.984 18.427-8.04 4.868-5.056 7.475-11.706 7.345-18.717-.246-14.313-11.98-25.787-26.25-25.787z" fill="#457FEF"/><path d="M26.628 326.26c-2.174-.261-4.245-.971-5.694-1.97l-1.217-.84 2.246-6.636 2.115 1.348c1.39.883 3.172 1.391 4.882 1.391h.16c1.419-.029 3.056-.638 3.027-2.231-.014-.855-.304-1.884-3.607-3.144-4.085-1.521-8.287-3.781-8.374-8.996-.072-3.912 2.376-7.157 6.23-8.475l-.087-2.724 6.562-.13.073 2.318c1.666.217 3.172.709 4.549 1.492l1.448.811-2.347 6.548-2.013-1.115c-.594-.334-2-1.101-4.201-1.101h-.174c-1.594.029-2.506.652-2.477 1.724.014.782.318 1.448 4.085 2.926 3.636 1.405 7.837 3.752 7.953 9.416.073 4.1-2.477 7.505-6.519 8.866l.087 2.854-6.592.131-.115-2.463zm280.337 9.605c-.304-16.849 13.096-30.756 29.945-31.075 16.848-.304 30.755 13.096 31.06 29.959.304 16.848-13.096 30.756-29.945 31.06-16.848.319-30.755-13.082-31.06-29.944z" fill="#5A30FF"/><path d="M312.788 335.763c-.261-13.632 10.59-24.874 24.222-25.135 13.632-.246 24.874 10.59 25.135 24.223.261 13.632-10.59 24.888-24.222 25.134-13.632.261-24.889-10.59-25.135-24.222z" fill="#9F64FF"/><path d="M337.458 362.564c-7.084 0-13.777-2.695-18.905-7.635-5.244-5.056-8.2-11.85-8.33-19.123-.131-7.287 2.578-14.182 7.62-19.412 5.056-5.244 11.85-8.2 19.123-8.33h.507c14.805 0 26.974 11.894 27.25 26.757.13 7.273-2.579 14.168-7.621 19.413-5.055 5.244-11.85 8.199-19.122 8.33h-.522zm.015-53.529h-.493c-7.012.13-13.56 2.984-18.442 8.025-4.867 5.056-7.475 11.691-7.345 18.717.131 7.012 2.985 13.56 8.041 18.442 5.056 4.868 11.662 7.504 18.717 7.36 7.011-.131 13.56-2.985 18.427-8.041 4.868-5.056 7.475-11.705 7.345-18.717-.246-14.313-11.995-25.786-26.25-25.786z" fill="#457FEF"/><path d="M333.592 350.438c-2.173-.26-4.245-.97-5.694-1.97l-1.217-.84 2.246-6.635 2.115 1.347c1.391.884 3.172 1.391 4.882 1.391h.159c1.42-.029 3.057-.638 3.028-2.231-.014-.855-.304-1.883-3.607-3.144-4.086-1.521-8.287-3.781-8.374-8.996-.072-3.912 2.376-7.157 6.23-8.475l-.087-2.723 6.562-.131.073 2.318c1.666.217 3.172.71 4.549 1.492l1.448.811-2.346 6.549-2.014-1.116c-.594-.333-1.999-1.101-4.201-1.101h-.174c-1.594.029-2.506.652-2.477 1.724.014.782.318 1.449 4.085 2.926 3.636 1.406 7.837 3.752 7.953 9.417.073 4.1-2.477 7.504-6.519 8.866l.087 2.854-6.592.13-.115-2.463z" fill="#5A30FF"/><path d="M424.915 197.283l-29.481 2.738 10.851 10.851-25.106 25.105c-1.362 1.362-1.362 3.579 0 4.955a3.5 3.5 0 004.955 0l25.105-25.106 10.938 10.938 2.738-29.481z" fill="#CA4BF7"/><path d="M409.416 262.706l-29.481 2.738 10.85 10.851-25.105 25.106c-1.362 1.361-1.362 3.578 0 4.954a3.498 3.498 0 004.954 0l25.106-25.106 10.938 10.938 2.738-29.481z" fill="#5F56FF"/><path d="M324.825 67.755l-29.481 2.738 10.851 10.851-25.106 25.106c-1.362 1.362-1.362 3.578 0 4.954a3.498 3.498 0 004.954 0l25.106-25.106 10.938 10.938 2.738-29.48z" fill="#D250FF"/><path d="M244.396 14.907a2.19 2.19 0 01-2.174-2.173V2.173A2.18 2.18 0 01244.396 0a2.18 2.18 0 012.173 2.173v10.561a2.18 2.18 0 01-2.173 2.173zm-18.268 6.157c.956-.724 1.145-2.1.42-3.042L220.16 9.62c-.725-.957-2.101-1.145-3.043-.42-.956.724-1.144 2.1-.42 3.042l6.389 8.402a2.17 2.17 0 003.042.42zm-11.735 13.024a2.183 2.183 0 01-2.999.695l-8.967-5.577c-1.014-.638-1.333-1.985-.695-2.999a2.181 2.181 0 012.998-.695l8.968 5.577a2.195 2.195 0 01.695 2.999zm-4.505 16.732a2.182 2.182 0 00-2.26-2.086l-10.547.42a2.183 2.183 0 00-2.086 2.26 2.182 2.182 0 002.26 2.086l10.547-.42a2.2 2.2 0 002.086-2.26zm54.123-30.886a2.172 2.172 0 01-.594-3.014l5.882-8.764a2.171 2.171 0 113.607 2.42l-5.882 8.764a2.171 2.171 0 01-3.013.594zM276.5 32.233c.696.97 2.057 1.217 3.028.522l8.62-6.1c.97-.695 1.217-2.056.521-3.027-.695-.97-2.057-1.217-3.028-.521l-8.619 6.099a2.168 2.168 0 00-.522 3.027zm5.49 16.443c-.029-1.188.942-2.188 2.13-2.217l10.546-.203c1.188-.029 2.188.942 2.217 2.13.029 1.188-.942 2.188-2.13 2.217l-10.546.202a2.19 2.19 0 01-2.217-2.13zm-66.918 3.52c-.304-16.848 13.097-30.755 29.945-31.074 16.848-.304 30.756 13.096 31.06 29.959.304 16.848-13.096 30.755-29.945 31.06-16.848.318-30.755-13.097-31.06-29.945z" fill="#5A30FF"/><path d="M220.895 52.095c-.261-13.632 10.59-24.874 24.222-25.135 13.632-.246 24.874 10.59 25.135 24.222.261 13.632-10.59 24.889-24.222 25.135-13.632.246-24.889-10.59-25.135-24.222z" fill="#9F64FF"/><path d="M245.552 78.895c-7.084 0-13.777-2.694-18.906-7.634-5.244-5.056-8.199-11.85-8.329-19.123-.131-7.287 2.578-14.183 7.62-19.413 5.056-5.244 11.85-8.2 19.122-8.33h.507c14.806 0 26.975 11.894 27.25 26.758.131 7.272-2.578 14.168-7.62 19.412-5.056 5.244-11.85 8.2-19.123 8.33h-.521zm.014-53.529h-.492c-7.012.13-13.56 2.984-18.442 8.026-4.868 5.056-7.475 11.69-7.345 18.717.131 7.011 2.984 13.56 8.04 18.442 5.056 4.867 11.662 7.504 18.717 7.36 7.012-.131 13.56-2.985 18.428-8.041 4.867-5.056 7.475-11.706 7.345-18.717-.247-14.313-11.981-25.787-26.251-25.787z" fill="#457FEF"/><path d="M241.685 66.77c-2.173-.26-4.244-.97-5.693-1.97l-1.217-.84 2.246-6.636 2.115 1.348c1.39.883 3.172 1.39 4.882 1.39h.159c1.42-.029 3.057-.637 3.028-2.23-.015-.855-.304-1.884-3.607-3.144-4.086-1.521-8.287-3.781-8.374-8.997-.072-3.911 2.376-7.156 6.23-8.474l-.087-2.724 6.562-.13.073 2.318c1.666.217 3.172.71 4.549 1.492l1.448.811-2.347 6.548-2.013-1.115c-.594-.334-1.999-1.101-4.201-1.101h-.174c-1.594.029-2.507.651-2.478 1.723.015.783.319 1.45 4.086 2.927 3.636 1.405 7.837 3.752 7.953 9.416.072 4.1-2.477 7.505-6.519 8.866l.087 2.854-6.592.13-.116-2.462z" fill="#5A30FF"/></g><defs><radialGradient id="paint0_radial_2_682" cx="0" cy="0" r="1" gradientUnits="userSpaceOnUse" gradientTransform="matrix(0 7.70703 -83.7489 0 136.583 411.095)"><stop stop-color="#5F56FF" stop-opacity=".44"/><stop offset="1" stop-color="#5F56FF" stop-opacity="0"/></radialGradient><radialGradient id="paint1_radial_2_682" cx="0" cy="0" r="1" gradientUnits="userSpaceOnUse" gradientTransform="matrix(0 7.67806 -68.4507 0 311.149 374.805)"><stop stop-color="#5F56FF" stop-opacity=".44"/><stop offset="1" stop-color="#5F56FF" stop-opacity="0"/></radialGradient><radialGradient id="paint2_radial_2_682" cx="0" cy="0" r="1" gradientUnits="userSpaceOnUse" gradientTransform="matrix(0 2.79599 -30.7412 0 31.74 382.484)"><stop stop-color="#5F56FF" stop-opacity=".44"/><stop offset="1" stop-color="#5F56FF" stop-opacity="0"/></radialGradient><clipPath id="clip0_2_682"><path fill="#fff" d="M0 0h424.916v418.802H0z"/></clipPath></defs></svg>