<svg width="49" height="48" fill="none" xmlns="http://www.w3.org/2000/svg"><path fill-rule="evenodd" clip-rule="evenodd" d="M26.668 1.778c0-.982.796-1.778 1.778-1.778h1.777c.982 0 1.778.796 1.778 1.778v1.778c0 .078-.005.156-.015.232A15.029 15.029 0 0137.98 6.27c.046-.061.098-.12.153-.175l1.257-1.257a1.778 1.778 0 012.514 0l1.258 1.257c.694.694.694 1.82 0 2.514l-1.258 1.257a1.779 1.779 0 01-.174.153 15.03 15.03 0 012.485 5.995c.076-.01.153-.015.232-.015h1.778c.981 0 1.777.796 1.777 1.778v1.777c0 .982-.796 1.778-1.777 1.778h-1.778c-.079 0-.156-.005-.232-.015a15.03 15.03 0 01-2.484 5.994c.06.047.118.098.174.153l1.257 1.257c.694.694.694 1.82 0 2.514l-1.257 1.257a1.778 1.778 0 01-2.514 0l-1.257-1.257a1.784 1.784 0 01-.154-.174 15.03 15.03 0 01-5.993 2.484c.01.076.015.153.015.232v1.778c0 .981-.796 1.777-1.777 1.777h-1.778a1.778 1.778 0 01-1.778-1.777v-1.778c0-.079.005-.156.015-.232a15.03 15.03 0 01-5.994-2.484c-.046.061-.098.12-.154.176l-1.257 1.257a1.778 1.778 0 01-2.514 0l-1.257-1.257a1.778 1.778 0 010-2.514l1.257-1.258c.056-.055.115-.107.175-.153a15.03 15.03 0 01-2.484-5.995c-.076.01-.153.015-.232.015h-1.777a1.778 1.778 0 01-1.778-1.777v-1.778c0-.982.796-1.778 1.778-1.778h1.777c.079 0 .156.005.232.015a15.03 15.03 0 012.484-5.993 1.794 1.794 0 01-.174-.154L15.509 8.61a1.778 1.778 0 010-2.514l1.257-1.257a1.778 1.778 0 012.514 0l1.257 1.257c.055.056.106.114.153.174a15.029 15.029 0 015.994-2.484 1.792 1.792 0 01-.015-.231V1.778zm2.666 28.444c6.382 0 11.556-5.173 11.556-11.555S35.716 7.11 29.334 7.11c-6.382 0-11.555 5.174-11.555 11.556 0 6.382 5.173 11.555 11.555 11.555zm-22.224 0c0-.982.797-1.778 1.778-1.778h1.778c.982 0 1.778.796 1.778 1.778V32c0 .194-.031.382-.09.557a6.246 6.246 0 013.088 3.087 1.8 1.8 0 01.557-.089h1.778c.982 0 1.777.796 1.777 1.778v1.778c0 .982-.795 1.778-1.777 1.778h-1.778c-.194 0-.382-.032-.557-.09a6.246 6.246 0 01-3.087 3.088c.058.175.089.363.089.557v1.778c0 .982-.796 1.778-1.778 1.778H8.888a1.778 1.778 0 01-1.777-1.778v-1.778c0-.194.03-.382.089-.557A6.246 6.246 0 014.113 40.8a1.775 1.775 0 01-.557.089H1.778A1.778 1.778 0 010 39.11v-1.778c0-.982.796-1.778 1.778-1.778h1.778c.194 0 .381.032.557.09A6.246 6.246 0 017.2 32.556 1.776 1.776 0 017.11 32v-1.778zM9.779 40.89a2.667 2.667 0 100-5.334 2.667 2.667 0 000 5.334z" fill="#2B52DB"/></svg>