<svg width="44" height="44" fill="none" xmlns="http://www.w3.org/2000/svg"><path d="M30.651 36.212l-1.173-9.394A5.5 5.5 0 0024.018 22h-4.04a5.5 5.5 0 00-5.456 4.818l-1.175 9.394a3.667 3.667 0 003.64 4.121h10.025a3.666 3.666 0 003.64-4.121v0z" stroke="#2B52DB" stroke-width="2.667" stroke-linecap="round" stroke-linejoin="round"/><path d="M22 14.667a5.5 5.5 0 100-11 5.5 5.5 0 000 11zm-14.666 5.5a3.667 3.667 0 100-7.334 3.667 3.667 0 000 7.334zm29.333 0a3.667 3.667 0 100-7.334 3.667 3.667 0 000 7.334z" stroke="#2B52DB" stroke-width="2.667"/><path d="M36.667 25.667h.561a3.666 3.666 0 013.618 3.063l.61 3.667a3.667 3.667 0 01-3.617 4.27h-6.672m-23.833-11h-.56a3.667 3.667 0 00-3.618 3.063l-.61 3.667a3.667 3.667 0 003.617 4.27h6.671l-5.5-11z" stroke="#2B52DB" stroke-width="2.667" stroke-linecap="round" stroke-linejoin="round"/></svg>