<svg width="54" height="54" fill="none" xmlns="http://www.w3.org/2000/svg"><path d="M36.794 25.545a1.125 1.125 0 00-1.59-1.59l-8.205 8.204-3.705-3.704a1.126 1.126 0 00-1.59 1.59l5.295 5.296 9.795-9.796z" fill="#2B52DB"/><path fill-rule="evenodd" clip-rule="evenodd" d="M42.748 16.875V40.5a3.375 3.375 0 01-3.375 3.375h-20.25a3.375 3.375 0 01-3.375-3.375V9a3.375 3.375 0 013.375-3.375h12.375l11.25 11.25zM31.498 18a1.125 1.125 0 01-1.125-1.125v-9h-11.25A1.125 1.125 0 0017.998 9v31.5a1.125 1.125 0 001.125 1.125h20.25a1.125 1.125 0 001.125-1.125V18h-9zm1.125-8.069l5.819 5.819h-5.819V9.93z" fill="#2B52DB"/><path d="M13.499 12.375V42.75a3.375 3.375 0 003.375 3.375h21.375v2.25H16.874a5.625 5.625 0 01-5.625-5.625V12.375h2.25z" fill="#2B52DB"/></svg>