<svg width="58" height="46" fill="none" xmlns="http://www.w3.org/2000/svg"><path d="M49.857 22.961a1.212 1.212 0 00-1.714 0l-7.714 7.714a1.212 1.212 0 101.714 1.714L49 25.533l6.857 6.856a1.212 1.212 0 001.714-1.714l-7.714-7.714zm-5.805 14.294l-.922-.787.922.787zm-26.38 4.02l.647-1.025-.647 1.025zm-7.513-11.719a1.212 1.212 0 10-2.318.712l2.318-.712zm37.629-5.738c0 4.644-1.653 9.132-4.658 12.65l1.844 1.575a21.906 21.906 0 005.238-14.224h-2.424zm-4.658 12.65a19.207 19.207 0 01-11.71 6.526l.364 2.397a21.63 21.63 0 0013.19-7.348l-1.844-1.575zm-11.71 6.526c-4.552.694-9.2-.28-13.1-2.744l-1.296 2.05a21.55 21.55 0 0014.76 3.091l-.365-2.396zm-13.1-2.744a19.375 19.375 0 01-8.161-10.694l-2.318.712A21.8 21.8 0 0017.024 42.3l1.295-2.05zM8.143 23.463c.473.473 1.24.473 1.714 0l7.714-7.714a1.212 1.212 0 00-1.714-1.714L9 20.892l-6.857-6.857A1.212 1.212 0 10.43 15.75l7.714 7.714zM13.948 9.17l.922.787-.922-.787zm12.45-6.937l.183 1.198-.183-1.198zm13.93 2.918l-.647 1.025.647-1.025zm7.513 11.718a1.212 1.212 0 102.318-.712l-2.318.712zm-37.629 5.738a19.48 19.48 0 014.658-12.65l-1.844-1.574a21.906 21.906 0 00-5.238 14.224h2.424zm4.658-12.65A19.207 19.207 0 0126.58 3.43l-.364-2.397a21.631 21.631 0 00-13.19 7.349l1.844 1.574zM26.58 3.43c4.552-.693 9.2.28 13.1 2.745l1.296-2.05a21.549 21.549 0 00-14.76-3.091l.365 2.396zm13.1 2.745a19.375 19.375 0 018.161 10.693l2.318-.712a21.8 21.8 0 00-9.183-12.03L39.68 6.174z" fill="#2B52DB"/><circle cx="29" cy="24" r="5" fill="#2B52DB"/></svg>