<svg width="372" height="304" fill="none" xmlns="http://www.w3.org/2000/svg"><path d="M159.342 141.465h-.905v94.93h.905v-94.93zm-63.259 0h-.904v94.93h.904v-94.93zm129.358-.001h-.906v94.93h.906v-94.93zm64.362.001h-.905v94.93h.905v-94.93zm-178.117-11.698H96.27v2.475h15.416v-2.475zm6.451 4.574H96.27v2.475h21.867v-2.475zm59.898-4.574h-18.098v2.475h18.098v-2.475zm-6.525 4.574h-11.573v2.475h11.573v-2.475zm65.146-4.574h-11.214v2.475h11.214v-2.475zm1.856 4.574h-13.07v2.475h13.07v-2.475zm67.626-4.574h-16.336v2.475h16.336v-2.475zm-3.264 4.574h-13.072v2.475h13.072v-2.475z" fill="#9EB9FF"/><path d="M235.681 242.02h-10.239v3.299h10.239v-3.299zm64.36 0h-10.239v3.299h10.239v-3.299z" fill="#B8B8B8"/><path d="M331.403 208.19c-20.074.002-37.524-8.675-55.715-17.719-22.459-11.164-45.682-22.708-76.624-19.546-19.758 2.019-32.16 10.062-43.101 17.158-9.908 6.425-19.274 12.076-31.959 12.559-20.502.78-27.613-7.962-27.733-8.495v-5.609c.026.096 4.503 9.907 27.712 9.791 11.43-.057 19.866-5.529 29.633-11.864 11.352-7.362 24.216-15.706 45.011-17.832 32.183-3.287 55.976 8.539 78.984 19.977 24.076 11.967 47.049 23.19 76.098 13.453v4.612c-8.283 2.778-14.905 3.515-22.306 3.515z" fill="url(#paint0_linear_2_2648)" opacity=".43"/><path d="M210.909 207.116c-14.817.001-26.57-9.962-38.075-19.712-8.724-7.393-17.775-14.952-28.222-18.681-31.885-11.381-48.197 9.4-48.343 9.582v-6.321c.172-.216 3.083-3.992 11.501-7.599 7.664-3.282 20.523-5.901 38.26.265 11.237 3.908 20.569 11.817 29.595 19.465 18.308 15.516 34.12 28.916 61.579 7.927 20.797-15.897 40.403-31.047 59.693-36.581 18.867-5.413 38.537-1.45 56.949 16.955l-.136 5.74c-39.11-39.268-72.412-14.39-113.884 17.311-10.987 8.397-20.453 11.647-28.917 11.649z" fill="url(#paint1_linear_2_2648)"/><path d="M242.411 118.787l-.653-.767 10.842-9.232h6.584l14.939-12.722 9.343 7.957h6.89l3.484 2.965 10.818-9.214h5.492l22.769-19.39.655.766-23.052 19.631h-5.492l-11.19 9.53-3.855-3.281h-6.89l-8.972-7.642-14.569 12.407h-6.585l-10.558 8.992z" fill="url(#paint2_linear_2_2648)"/><path d="M243.977 106.034h-3.747v-1.007h3.33l5.626-5.624 4.09 4.09 9.772-9.77 3.006 3.005 9.91-9.904 5.936 5.935h6.77l10.449-10.444h9.011l6.661-6.659h8.155l8.091-8.089.711.713-8.385 8.383h-8.155l-6.661 6.66h-9.011l-10.449 10.443h-7.604l-5.519-5.518-9.91 9.904-3.006-3.003-9.772 9.768-4.09-4.09-5.209 5.207z" fill="url(#paint3_linear_2_2648)"/><path d="M344.039 108.324c-.007-.021-.012-.043-.018-.064-9.637-33.593-33.686-62.308-66.914-77.082h-.003a119.391 119.391 0 00-17.866-6.341c-15.514-4.174-31.146-5.12-46.171-3.26-.012.003-.028.003-.04.006l-.021-.006a120.383 120.383 0 00-29.307 7.487c-.018.007-.036.015-.056.021-34.365 13.511-62.083 42.589-72.412 80.964-17.34 64.407 20.824 130.649 85.234 147.977 33.076 8.897 66.634 3.169 93.811-13.222l5.073 7.042 23.909-17.21-5.772-8.012c14.402-14.438 25.335-32.72 31.017-53.825 5.909-21.949 5.374-44.118-.464-64.475zM255.6 218.636c-42.703 15.297-89.731-6.904-105.034-49.592-15.021-41.893 6.092-87.952 47.25-104.11a82.422 82.422 0 0119.987-5.098c15.113-1.882 30.152.54 43.579 6.534 19.724 8.807 35.966 25.334 43.829 47.269a83.938 83.938 0 011.675 5.199c11.798 41.241-10.309 85.117-51.286 99.798z" fill="url(#paint4_linear_2_2648)"/><path d="M367.828 101.479l-23.81 6.782-37.133 10.579a85.758 85.758 0 00-1.675-5.199c-7.863-21.935-24.105-38.462-43.829-47.269l15.722-35.195h.003l1.654-3.705 8.449-18.917c40.049 17.809 69.026 52.429 80.619 92.924z" fill="#7459F8"/><path d="M278.76 27.472l-1.654 3.705-15.725 35.195c-13.427-5.995-28.464-8.416-43.579-6.533l-4.736-38.263-.496-4.012c15.534-1.928 31.693-.95 47.733 3.364a123.123 123.123 0 0118.457 6.544z" fill="#AA5BFC"/><path d="M217.801 59.839a82.442 82.442 0 00-19.987 5.097l-14.117-35.873-4.274-10.857a131.841 131.841 0 0132.185-8.23l.024.006.939 7.581.496 4.012 4.734 38.264z" fill="#785DFF"/><path d="M372 300.005h-47.61l-33.084-45.931 15.516-11.17 15.836-11.396 7.886 10.95L372 300.005z" fill="url(#paint5_linear_2_2648)"/><mask id="mask0_2_2648" style="mask-type:alpha" maskUnits="userSpaceOnUse" x="5" y="140" width="18" height="8"><path d="M9.667 147.943h12.495l-3.825-7.931H5.842l3.825 7.931z" fill="url(#paint6_linear_2_2648)"/></mask><mask id="mask1_2_2648" style="mask-type:alpha" maskUnits="userSpaceOnUse" x="0" y="140" width="7" height="8"><path d="M3.825 147.943h2.977l-3.824-7.93H0l3.825 7.93z" fill="url(#paint7_linear_2_2648)"/></mask><mask id="mask2_2_2648" style="mask-type:alpha" maskUnits="userSpaceOnUse" x="339" y="0" width="15" height="6"><path d="M339.658 5.341h13.855V0h-13.855v5.341z" fill="url(#paint8_linear_2_2648)"/></mask><path d="M196.693 255.417h49.72l-15.671 48.106 1.467.477 16.327-50.123h-52.963l-16.172 49.646 1.466.477 15.826-48.583z" fill="#BFBFBF"/><path d="M213.617 303.522l-15.671-48.105h49.72L263.492 304l1.466-.478-16.173-49.645h-52.962L212.15 304l1.467-.478z" fill="#BFBFBF"/><path d="M252.921 269.024h-60.856v1.54h60.856v-1.54zm5.686 16.727h-72.809v1.541h72.809v-1.541z" fill="#BFBFBF"/><path d="M221.612 145.624s1.24-2.168-.726-7.98c-1.9-5.62-8.482-5.11-10.573-1.51-2.092 3.6-1.386 5.836 1.694 9.902 3.078 4.066 8.326 1.447 9.605-.412zm-15.283 99.977s-.326 2.387-.367 2.745c-.04.358-3.622-.211-3.622-.211l-.29-2.842c-.001 0 3.831-.029 4.279.308z" fill="#EEA886"/><path d="M205.999 248.043s1.135 1.437 2.233 2.065c1.097.626 2.822.874 3.472 1.523.469.468 1.706 2.485-2.852 2.445-4.559-.041-6.757.284-7.246-.489-.489-.774.707-5.706.707-5.706s1.115.314 3.686.162z" fill="#152B3D"/><path d="M231.129 245.601s-.325 2.387-.366 2.745c-.041.358-3.622-.211-3.622-.211l-.29-2.842c-.002 0 3.83-.029 4.278.308z" fill="#EEA886"/><path d="M230.803 248.043s1.135 1.437 2.232 2.065c1.097.626 5.137 1.141 5.786 1.79.47.469 1.248 2.354-5.166 2.178-4.558-.126-6.756.284-7.245-.489-.489-.774.706-5.706.706-5.706s1.417.252 3.687.162z" fill="#152B3D"/><path d="M207.531 186.179s-1.837 5.705-1.595 10.621-.95 10.297-1.436 15.432c-.543 5.725-2.765 19.28-2.845 22.342-.081 3.062.345 12.842.345 12.842l4.448.108s3.736-23.696 4.704-26.114c.968-2.418 5.765-19.654 5.927-21.59.16-1.934-9.548-13.641-9.548-13.641z" fill="#898EFE"/><path d="M225.974 185.585s2.7 15.083 3.022 18.093c.322 3.009.538 14.561.698 16.441.162 1.88 1.075 24.61 1.935 27.404h-4.96s-5.093-16.524-5.093-24.342c0-7.818-3.373-16.996-5.549-22.154-2.177-5.158-7.16-5.28-8.498-14.851.001.002 16.632-3.627 18.445-.591z" fill="#898EFE"/><path d="M219.813 147.158s-.559 1.628 0 2.789c.559 1.161-7.149.464-7.149.464s.349-2.4-.659-4.374c-1.006-1.974 7.808 1.121 7.808 1.121z" fill="#EEA886"/><path d="M207.174 187.421s2.772 2.846 19.048-.443l-.249-1.393-18.503.696-.296 1.14z" fill="#5625E0"/><path d="M220.984 150.325s2.847.291 3.66.444c.813.156 6.288-.979 7.412-1.095 1.123-.116 5.912-3.397 6.067-3.783.156-.388 2.915-7.37 3.069-8.879.155-1.511 2.687-.731 2.469.311-.405 1.945-.927 6.67-1.213 8.04-.309 1.478-1.137 4.828-1.601 5.24-.465.412-4.778 3.691-8.999 5.084-4.221 1.395-7.399 3.446-7.399 3.446h-20.808s-8.092-11.563-8.267-13.306c-.175-1.743 5.652-13.322 6.815-14.774 1.161-1.452 2.842.474 2.842.474s-3.482 10.211-3.946 11.663c-.464 1.452 4.049 7.831 5.289 7.851 1.24.019 4.422-.388 5.835-.445 1.414-.059 2.905-.677 2.905-.677l5.87.406z" fill="#EEA886"/><path d="M229.945 158.049s-2.547 1.692-2.779 4.597c-.232 2.904-1.161 7.491-1.627 9.059-.465 1.568.407 12.949.523 13.764.116.812-16.099 2.745-18.59.812 0 0-.697-10.626-.988-13.648-.291-3.019-1.685-10.337-2.149-11.324-.465-.988-6.1-8.889-6.333-9.93 0 0 2.915-4.647 5.006-4.704 0 0 3.322 3.891 4.405 4.066 1.083.175 7.721-1.041 7.723-1.051 0 0 .724.986 4.576-.175 0 0 4.587.516 5.333.613.904.116 7.184-.788 7.184-.788s2.521 4.254 2.079 6.402l-4.363 2.307z" fill="#5D5AFA"/><path d="M241.042 137.919s.569-2.691-.117-3.464c-.389-.44-1.326-1.604-1.413-1.775-.085-.172-1.09-.749-1.09-1.027 0-.278.984-.621 1.839.172.856.791 1.391.963 1.734.876.342-.085.834-2.931.877-3.636.042-.706.315-2.567.757-2.439.441.127.42.942.42.942s.514-1.413.856-1.133c.341.278.299.963.299.963s.643-.792.813-.215c.171.577 0 1.091 0 1.091s.664-.363.706.534c.043.9-.193 3.53-.664 4.472-.471.941-2.232 3.404-2.443 4.365-.21.961-2.574.274-2.574.274zm-36.579-4.726s1.937-3.254 2.594-3.543c.659-.291 1.588-.455 2.401-1.037.813-.58 1.887-1.064 1.83-1.258-.057-.193-1.017-.117-2.043.328-1.027.445-1.476.231-1.573-.001-.096-.233.548-1.872.857-2.26.309-.387 2.517-2.607 2.149-2.936-.368-.329-1.801.891-2.033 1.143 0 0 1.143-2.4.697-2.516-.445-.116-1.277.735-1.277.735s.096-2.051-2.112 1.279c0 0 .465-1.104-.212-.736-.677.368-1.337 2.439-1.549 3.484-.213 1.045-1.179 4.375-2.004 5.179-.824.803 2.275 2.139 2.275 2.139z" fill="#EEA886"/><path d="M212.007 146.038s1.021.09 3.189-.659c2.169-.749 2.331-4.54 2.8-4.09.957.917 1.861.284 2.223-.259 0 0-1.058-1.394-.568-2.065.491-.672 1.289-1.16 1.289-1.16s-1.526-7.351-8.468-4.002c-8.134 3.923-.465 12.235-.465 12.235z" fill="#353A3D"/><path d="M219.815 149.947l-.245-1.063s-4.431-.09-6.85.26l-.255 1.27c.002.002 3.098 1.404 7.35-.467z" fill="#5625E0"/><path d="M218.72 140.359c-.402-.669-1.89-1.12-2.065.775-.136 1.468 2.659 3.072 2.685 1.703.026-1.368-.351-2.034-.62-2.478z" fill="#EEA886"/><path d="M241.148 137.308s1.6.039 2.375.739c0 0 .051.445-.129.795 0 0-1.385-.646-2.448-.767 0 .001.016-.581.202-.767z" fill="#E55353"/><path d="M243.03 137.706a.689.689 0 01-1.267.535.689.689 0 011.267-.535z" fill="#353A3D"/><defs><linearGradient id="paint0_linear_2_2648" x1="96.269" y1="187.134" x2="353.707" y2="187.134" gradientUnits="userSpaceOnUse"><stop stop-color="#B8AAFD"/><stop offset="1" stop-color="#EDDBFF"/></linearGradient><linearGradient id="paint1_linear_2_2648" x1="96.27" y1="180.17" x2="353.844" y2="180.17" gradientUnits="userSpaceOnUse"><stop stop-color="#DADCFF"/><stop offset=".93" stop-color="#DEE3F3"/></linearGradient><linearGradient id="paint2_linear_2_2648" x1="241.758" y1="98.585" x2="333.573" y2="98.585" gradientUnits="userSpaceOnUse"><stop stop-color="#8FA8FF"/><stop offset="1" stop-color="#BFEBFE"/></linearGradient><linearGradient id="paint3_linear_2_2648" x1="240.23" y1="86.801" x2="331.749" y2="86.801" gradientUnits="userSpaceOnUse"><stop stop-color="#8FA8FF"/><stop offset="1" stop-color="#BFEBFE"/></linearGradient><linearGradient id="paint4_linear_2_2648" x1="257.246" y1="57.749" x2="205.532" y2="205.141" gradientUnits="userSpaceOnUse"><stop stop-color="#E9EEFF"/><stop offset="1" stop-color="#D4DDFF"/></linearGradient><linearGradient id="paint5_linear_2_2648" x1="283.464" y1="208.844" x2="377.274" y2="341.702" gradientUnits="userSpaceOnUse"><stop stop-color="#D4DEFF"/><stop offset="1" stop-color="#E7EDFF"/></linearGradient><linearGradient id="paint6_linear_2_2648" x1="13.199" y1="105.181" x2="14.573" y2="171.59" gradientUnits="userSpaceOnUse"><stop stop-color="#fff"/><stop offset="1"/></linearGradient><linearGradient id="paint7_linear_2_2648" x1="2.603" y1="105.4" x2="3.976" y2="171.809" gradientUnits="userSpaceOnUse"><stop stop-color="#fff"/><stop offset="1"/></linearGradient><linearGradient id="paint8_linear_2_2648" x1="354.214" y1="-25.854" x2="338.285" y2="33.753" gradientUnits="userSpaceOnUse"><stop stop-color="#fff"/><stop offset="1"/></linearGradient></defs></svg>